<?xml version="1.0" encoding="UTF-8" standalone="no"?>
<svg xmlns:dc="http://purl.org/dc/elements/1.1/" xmlns:cc="http://creativecommons.org/ns#" xmlns:rdf="http://www.w3.org/1999/02/22-rdf-syntax-ns#" xmlns:svg="http://www.w3.org/2000/svg" xmlns="http://www.w3.org/2000/svg" style="shape-rendering:crispEdges" id="svg8" version="1.1" viewBox="0 0 128.32292 95.250003" height="360" width="485">
  <title id="title848">Coffee Pot 2</title>
  <defs id="defs2" />
  <metadata id="metadata5">
    <rdf:RDF>
      <cc:Work rdf:about="">
        <dc:format>image/svg+xml</dc:format>
        <dc:type rdf:resource="http://purl.org/dc/dcmitype/StillImage" />
        <dc:title>Coffee Pot 2</dc:title>
        <dc:creator>
          <cc:Agent>
            <dc:title>Arvin61r58</dc:title>
          </cc:Agent>
        </dc:creator>
        <dc:publisher>
          <cc:Agent>
            <dc:title>Openclipart.org</dc:title>
          </cc:Agent>
        </dc:publisher>
        <dc:identifier>https://openclipart.org/</dc:identifier>
        <dc:source>https://openclipart.org/user-detail/Arvin61r58</dc:source>
        <dc:subject>
          <rdf:Bag>
            <rdf:li>coffee pot</rdf:li>
            <rdf:li>CoffeePot</rdf:li>
            <rdf:li>pictograph</rdf:li>
            <rdf:li>beverage</rdf:li>
            <rdf:li>coffee</rdf:li>
          </rdf:Bag>
        </dc:subject>
        <dc:description>Pictograph style black &amp; white coffee pot</dc:description>
        <cc:license rdf:resource="http://creativecommons.org/publicdomain/zero/1.0/" />
      </cc:Work>
      <cc:License rdf:about="http://creativecommons.org/publicdomain/zero/1.0/">
        <cc:permits rdf:resource="http://creativecommons.org/ns#Reproduction" />
        <cc:permits rdf:resource="http://creativecommons.org/ns#Distribution" />
        <cc:permits rdf:resource="http://creativecommons.org/ns#DerivativeWorks" />
      </cc:License>
    </rdf:RDF>
  </metadata>
  <g transform="translate(-40.838547,-100.875)" id="layer1">
    <g id="g844">
      <title id="title846">Coffee Pot  --  by Arvin61r58</title>
      <path style="fill:#000000;stroke-width:0.99999994" d="m 70.679396,102.20228 c -6.018411,0.0717 -10.794144,1.31192 -10.783875,1.74168 0.02596,1.03174 11.454357,8.4 13.088148,8.4 0.730265,0 1.092775,2.00068 1.092775,6.03519 v 6.03519 l -10.880072,6.73861 c -7.426111,4.5996 -12.050712,8.25444 -14.569153,11.51476 -9.031278,11.69168 -8.586996,24.87816 1.241827,36.86803 4.331635,5.28404 15.103001,13.03839 18.111783,13.03839 0.853589,0 1.798866,0.50112 2.10062,1.11398 0.343737,0.69818 9.460811,1.11398 24.41191,1.11398 14.951091,0 24.067301,-0.41585 24.411051,-1.11398 0.30173,-0.61286 1.24704,-1.11489 2.10062,-1.11489 3.00877,0 13.78014,-7.75343 18.11178,-13.03748 9.82882,-11.98985 10.27309,-25.17633 1.24183,-36.86803 -2.51459,-3.25523 -7.22512,-6.98132 -14.79101,-11.69996 l -11.10104,-6.92382 8.4328,-0.30564 c 8.77457,-0.31839 12.59253,-1.74131 15.50335,-5.77882 1.96015,-2.71888 6.34426,-5.61551 8.49953,-5.61551 3.53522,-1.05367 11.09473,1.43266 12.39227,9.96103 1.29755,8.52835 -4.79163,22.14685 1.11011,23.19465 7.85201,1.39405 8.80512,-21.04067 5.99162,-28.21075 -4.49326,-11.45082 -20.72187,-18.087462 -34.14288,-6.17478 -2.40464,2.13439 -10.77479,5.71041 -17.34312,3.72695 0,-1.07828 0.79918,-2.58738 1.77566,-3.35288 0.97646,-0.76547 1.77478,-2.36836 1.77478,-3.56273 0,-2.05167 -1.15075,-5.75269 -16.20008,-2.76259 -9.202417,1.82837 -19.262109,-2.34271 -28.936396,-2.91405 -0.880346,-0.0519 -1.785059,-0.0568 -2.644838,-0.0465 z m 5.63199,23.51307 h 18.181973 18.181971 l 6.66497,4.17856 6.66582,4.17856 -5.32607,1.21613 c -16.22012,2.47308 -36.097292,2.8398 -52.298914,0 l -5.401412,-1.21613 6.665829,-4.17856 z" id="path849" />
      <path style="fill:#ffffff;fill-opacity:1;stroke:none;stroke-width:0.99999994" d="m 80.28991,112.34396 c 0.488224,0 0.888259,0.50112 0.888259,1.11398 0,0.61286 -0.400035,1.1149 -0.888259,1.1149 -0.488234,0 -0.887395,-0.50204 -0.887395,-1.1149 0,-0.61286 0.399161,-1.11398 0.887395,-1.11398 z" id="path847" />
      <path style="fill:#ffffff;fill-opacity:1;stroke:none;stroke-width:0.99999994" d="m 87.02599,112.34396 c 1.464691,0 2.66304,0.50112 2.66304,1.11398 0,0.61286 -1.198349,1.1149 -2.66304,1.1149 -1.46469,0 -2.663039,-0.50204 -2.663039,-1.1149 0,-0.61286 1.198349,-1.11398 2.663039,-1.11398 z" id="path845" />
      <path style="fill:#ffffff;fill-opacity:1;stroke:none;stroke-width:0.99999994" d="m 102.48248,112.34396 c 6.50975,0 10.65214,0.43303 10.65214,1.11398 0,0.68097 -4.14239,1.1149 -10.65214,1.1149 -6.509752,0 -10.652161,-0.43393 -10.652161,-1.1149 0,-0.68095 4.142409,-1.11398 10.652161,-1.11398 z" id="path843" />
      <path style="color:#000000;font-style:normal;font-variant:normal;font-weight:normal;font-stretch:normal;font-size:medium;line-height:normal;font-family:sans-serif;font-variant-ligatures:normal;font-variant-position:normal;font-variant-caps:normal;font-variant-numeric:normal;font-variant-alternates:normal;font-feature-settings:normal;text-indent:0;text-align:start;text-decoration:none;text-decoration-line:none;text-decoration-style:solid;text-decoration-color:#000000;letter-spacing:normal;word-spacing:normal;text-transform:none;writing-mode:lr-tb;direction:ltr;text-orientation:mixed;dominant-baseline:auto;baseline-shift:baseline;text-anchor:start;white-space:normal;shape-padding:0;clip-rule:nonzero;display:inline;overflow:visible;visibility:visible;opacity:1;isolation:auto;mix-blend-mode:normal;color-interpolation:sRGB;color-interpolation-filters:linearRGB;solid-color:#000000;solid-opacity:1;vector-effect:none;fill:#ffffff;fill-opacity:1;fill-rule:nonzero;stroke:none;stroke-width:1.58750021;stroke-linecap:round;stroke-linejoin:round;stroke-miterlimit:4;stroke-dasharray:none;stroke-dashoffset:0;stroke-opacity:1;paint-order:stroke markers fill;color-rendering:auto;image-rendering:auto;shape-rendering:auto;text-rendering:auto;enable-background:accumulate" d="m 56.271041,146.70439 a 1.5417574,1.4015087 4.5510665 0 0 -1.090027,0.33698 c -4.22895,3.26014 -6.33072,9.44827 -5.94029,16.05173 0.405728,6.86219 3.421485,13.01575 8.330271,15.68667 a 1.5417574,1.4015087 4.5510665 1 0 1.552313,-2.40065 c -3.480564,-1.89383 -6.440241,-7.22222 -6.805167,-13.39433 -0.351134,-5.9388 1.767526,-11.39749 4.874464,-13.79265 a 1.5417574,1.4015087 4.5510665 0 0 -0.921564,-2.48775 z" id="path837" />
    </g>
  </g>
</svg>
