<svg width="764" height="369" viewBox="0 0 764 369" fill="none" xmlns="http://www.w3.org/2000/svg">
<g id="Frame 2">
<g id="Frame 3" clip-path="url(#clip0_9_12)">
<mask id="mask0_9_12" style="mask-type:alpha" maskUnits="userSpaceOnUse" x="192" y="110" width="98" height="98">
<rect id="stream-mask" x="192" y="110" width="98" height="98" fill="#C4C4C4"/>
</mask>
<g mask="url(#mask0_9_12)">
<path id="stream" d="M232.875 149.52C232.875 147.409 232.667 143.12 232.875 141.2L231.625 138C233.083 138.64 234.125 139.92 234.75 141.2C235.541 142.819 234.75 159.76 234.75 160.4C234.75 161.68 234.125 179.6 234.75 180.88C235.145 181.69 234.157 200.179 234.75 202C235.375 203.92 234.125 205.2 236.625 210.96C238.625 215.568 240.167 216.08 241 216.08L231.625 218C231.625 202 231 169.865 231 168.72C231 167.44 231.536 166.16 231.625 165.52C232.25 161.04 232.875 151.44 232.875 149.52Z" fill="#C4C4C4"/>
<path id="bump2" d="M240.5 197.5C240.167 197.333 239.7 196.6 236.5 197L236 198.5L238 199.5L240.5 199L240.5 197.5Z" fill="#C4C4C4"/>
<path id="bump1" d="M238 198C237.5 197.5 238.5 198 234 195.5L232 195L232.5 198.5L237.5 200.5C237.833 199.833 238.4 198.4 238 198Z" fill="#C4C4C4"/>
</g>
</g>
<g id="Frame 1">
<mask id="mask1_9_12" style="mask-type:alpha" maskUnits="userSpaceOnUse" x="225" y="152" width="316" height="66">
<g id="Kawaka">
<path d="M225.168 208.896H227.952C229.232 208.896 230.128 208.64 230.64 208.128C231.216 207.552 231.504 206.656 231.504 205.44V164.352C231.504 163.136 231.216 162.272 230.64 161.76C230.128 161.184 229.232 160.896 227.952 160.896H225.744V153.888H246.576V160.896H244.848C243.696 160.896 242.864 161.184 242.352 161.76C241.904 162.336 241.68 163.2 241.68 164.352V184.704L263.856 160.896H258.96V153.888H280.08V161.28H276.528C275.312 161.28 274.352 161.472 273.648 161.856C272.944 162.24 272.144 162.912 271.248 163.872L255.696 180.288L272.688 206.016C273.392 207.04 274.128 207.776 274.896 208.224C275.664 208.672 276.656 208.896 277.872 208.896H281.04V216H258.96V208.896H264.336L249.648 186.624L241.68 195.168V205.44C241.68 206.592 241.904 207.456 242.352 208.032C242.864 208.608 243.76 208.896 245.04 208.896H247.152V216H225.168V208.896ZM295.825 217.44C290.705 217.44 286.801 216.32 284.113 214.08C281.489 211.84 280.177 208.672 280.177 204.576C280.177 199.968 281.617 196.608 284.497 194.496C287.441 192.32 291.665 191.04 297.169 190.656L310.609 189.792V183.936C310.609 180.928 309.969 178.752 308.689 177.408C307.409 176.064 305.233 175.392 302.161 175.392C300.049 175.392 298.289 175.584 296.881 175.968C295.537 176.288 294.289 176.832 293.137 177.6V181.056H284.209V173.472C289.585 170.144 295.633 168.48 302.353 168.48C314.641 168.48 320.785 173.92 320.785 184.8V205.824C320.785 207.104 321.009 208.032 321.457 208.608C321.969 209.184 322.769 209.472 323.857 209.472H325.969V216H314.929L313.681 209.952C311.633 212.576 309.233 214.496 306.481 215.712C303.793 216.864 300.241 217.44 295.825 217.44ZM298.129 210.528C301.969 210.528 305.009 209.696 307.249 208.032C309.489 206.368 310.609 203.84 310.609 200.448V195.84L297.937 196.8C294.801 196.992 292.625 197.664 291.409 198.816C290.193 199.904 289.585 201.664 289.585 204.096C289.585 206.208 290.257 207.808 291.601 208.896C292.945 209.984 295.121 210.528 298.129 210.528ZM330.77 179.232C330.514 178.208 330.066 177.504 329.426 177.12C328.85 176.736 327.89 176.544 326.546 176.544H324.146V169.92H337.49L345.554 204.48L354.962 174.048H362.45L371.858 204.48L380.114 169.92H393.362V176.544H390.962C389.618 176.544 388.626 176.736 387.986 177.12C387.41 177.504 386.994 178.208 386.738 179.232L377.906 216H367.922L358.802 186.72L349.586 216H339.602L330.77 179.232ZM409.075 217.44C403.955 217.44 400.051 216.32 397.363 214.08C394.739 211.84 393.427 208.672 393.427 204.576C393.427 199.968 394.867 196.608 397.747 194.496C400.691 192.32 404.915 191.04 410.419 190.656L423.859 189.792V183.936C423.859 180.928 423.219 178.752 421.939 177.408C420.659 176.064 418.483 175.392 415.411 175.392C413.299 175.392 411.539 175.584 410.131 175.968C408.787 176.288 407.539 176.832 406.387 177.6V181.056H397.459V173.472C402.835 170.144 408.883 168.48 415.603 168.48C427.891 168.48 434.035 173.92 434.035 184.8V205.824C434.035 207.104 434.259 208.032 434.707 208.608C435.219 209.184 436.019 209.472 437.107 209.472H439.219V216H428.179L426.931 209.952C424.883 212.576 422.483 214.496 419.731 215.712C417.043 216.864 413.491 217.44 409.075 217.44ZM411.379 210.528C415.219 210.528 418.259 209.696 420.499 208.032C422.739 206.368 423.859 203.84 423.859 200.448V195.84L411.187 196.8C408.051 196.992 405.875 197.664 404.659 198.816C403.443 199.904 402.835 201.664 402.835 204.096C402.835 206.208 403.507 207.808 404.851 208.896C406.195 209.984 408.371 210.528 411.379 210.528ZM443.23 209.184H445.823C447.103 209.184 447.967 208.96 448.415 208.512C448.927 208 449.183 207.136 449.183 205.92V162.336C449.183 161.12 448.959 160.288 448.511 159.84C448.063 159.328 447.231 159.072 446.015 159.072H443.807V152.448H464.447V159.072H461.759C460.607 159.072 459.807 159.328 459.359 159.84C458.911 160.288 458.687 161.12 458.687 162.336V190.56L474.239 176.64H469.535V169.92H491.423V176.64H487.007C485.983 176.64 485.215 176.768 484.703 177.024C484.191 177.28 483.487 177.792 482.591 178.56L473.087 186.912L484.703 206.592C485.343 207.616 485.951 208.32 486.527 208.704C487.167 209.024 488.127 209.184 489.406 209.184H493.439V216H480.575L466.367 192.48L458.687 199.296V205.92C458.687 207.136 458.911 208 459.359 208.512C459.871 208.96 460.767 209.184 462.047 209.184H465.023V216H443.23V209.184ZM510.137 217.44C505.017 217.44 501.113 216.32 498.425 214.08C495.801 211.84 494.489 208.672 494.489 204.576C494.489 199.968 495.929 196.608 498.809 194.496C501.753 192.32 505.977 191.04 511.481 190.656L524.921 189.792V183.936C524.921 180.928 524.281 178.752 523.001 177.408C521.721 176.064 519.545 175.392 516.473 175.392C514.361 175.392 512.601 175.584 511.193 175.968C509.849 176.288 508.601 176.832 507.449 177.6V181.056H498.521V173.472C503.897 170.144 509.945 168.48 516.665 168.48C528.953 168.48 535.097 173.92 535.097 184.8V205.824C535.097 207.104 535.321 208.032 535.769 208.608C536.281 209.184 537.081 209.472 538.169 209.472H540.281V216H529.241L527.993 209.952C525.945 212.576 523.545 214.496 520.793 215.712C518.105 216.864 514.553 217.44 510.137 217.44ZM512.441 210.528C516.281 210.528 519.321 209.696 521.561 208.032C523.801 206.368 524.921 203.84 524.921 200.448V195.84L512.249 196.8C509.113 196.992 506.937 197.664 505.721 198.816C504.505 199.904 503.897 201.664 503.897 204.096C503.897 206.208 504.569 207.808 505.913 208.896C507.257 209.984 509.433 210.528 512.441 210.528Z" fill="black"/>
<path d="M225.168 208.896V207.896H224.168V208.896H225.168ZM230.64 161.76L229.893 162.424L229.932 162.468L229.976 162.507L230.64 161.76ZM225.744 160.896H224.744V161.896H225.744V160.896ZM225.744 153.888V152.888H224.744V153.888H225.744ZM246.576 153.888H247.576V152.888H246.576V153.888ZM246.576 160.896V161.896H247.576V160.896H246.576ZM242.352 161.76L241.605 161.096L241.583 161.12L241.563 161.146L242.352 161.76ZM241.68 184.704H240.68V187.245L242.412 185.386L241.68 184.704ZM263.856 160.896L264.588 161.578L266.154 159.896H263.856V160.896ZM258.96 160.896H257.96V161.896H258.96V160.896ZM258.96 153.888V152.888H257.96V153.888H258.96ZM280.08 153.888H281.08V152.888H280.08V153.888ZM280.08 161.28V162.28H281.08V161.28H280.08ZM273.648 161.856L274.127 162.734H274.127L273.648 161.856ZM271.248 163.872L271.974 164.56L271.979 164.554L271.248 163.872ZM255.696 180.288L254.97 179.6L254.424 180.177L254.862 180.839L255.696 180.288ZM272.688 206.016L271.854 206.567L271.859 206.575L271.864 206.583L272.688 206.016ZM274.896 208.224L274.392 209.088L274.896 208.224ZM281.04 208.896H282.04V207.896H281.04V208.896ZM281.04 216V217H282.04V216H281.04ZM258.96 216H257.96V217H258.96V216ZM258.96 208.896V207.896H257.96V208.896H258.96ZM264.336 208.896V209.896H266.193L265.171 208.345L264.336 208.896ZM249.648 186.624L250.483 186.073L249.783 185.013L248.917 185.942L249.648 186.624ZM241.68 195.168L240.949 194.486L240.68 194.774V195.168H241.68ZM242.352 208.032L241.563 208.646L241.583 208.672L241.605 208.696L242.352 208.032ZM247.152 208.896H248.152V207.896H247.152V208.896ZM247.152 216V217H248.152V216H247.152ZM225.168 216H224.168V217H225.168V216ZM225.168 209.896H227.952V207.896H225.168V209.896ZM227.952 209.896C229.31 209.896 230.547 209.635 231.347 208.835L229.933 207.421C229.709 207.645 229.154 207.896 227.952 207.896V209.896ZM231.347 208.835C232.186 207.997 232.504 206.792 232.504 205.44H230.504C230.504 206.52 230.246 207.107 229.933 207.421L231.347 208.835ZM232.504 205.44V164.352H230.504V205.44H232.504ZM232.504 164.352C232.504 163.013 232.191 161.801 231.304 161.013L229.976 162.507C230.241 162.743 230.504 163.259 230.504 164.352H232.504ZM231.387 161.096C230.591 160.2 229.336 159.896 227.952 159.896V161.896C229.128 161.896 229.665 162.168 229.893 162.424L231.387 161.096ZM227.952 159.896H225.744V161.896H227.952V159.896ZM226.744 160.896V153.888H224.744V160.896H226.744ZM225.744 154.888H246.576V152.888H225.744V154.888ZM245.576 153.888V160.896H247.576V153.888H245.576ZM246.576 159.896H244.848V161.896H246.576V159.896ZM244.848 159.896C243.553 159.896 242.384 160.219 241.605 161.096L243.099 162.424C243.344 162.149 243.839 161.896 244.848 161.896V159.896ZM241.563 161.146C240.919 161.973 240.68 163.098 240.68 164.352H242.68C242.68 163.302 242.889 162.699 243.141 162.374L241.563 161.146ZM240.68 164.352V184.704H242.68V164.352H240.68ZM242.412 185.386L264.588 161.578L263.124 160.214L240.948 184.022L242.412 185.386ZM263.856 159.896H258.96V161.896H263.856V159.896ZM259.96 160.896V153.888H257.96V160.896H259.96ZM258.96 154.888H280.08V152.888H258.96V154.888ZM279.08 153.888V161.28H281.08V153.888H279.08ZM280.08 160.28H276.528V162.28H280.08V160.28ZM276.528 160.28C275.224 160.28 274.077 160.483 273.169 160.978L274.127 162.734C274.627 162.461 275.4 162.28 276.528 162.28V160.28ZM273.169 160.978C272.33 161.436 271.446 162.195 270.517 163.19L271.979 164.554C272.842 163.629 273.558 163.044 274.127 162.734L273.169 160.978ZM270.522 163.184L254.97 179.6L256.422 180.976L271.974 164.56L270.522 163.184ZM254.862 180.839L271.854 206.567L273.522 205.465L256.53 179.737L254.862 180.839ZM271.864 206.583C272.62 207.683 273.457 208.542 274.392 209.088L275.4 207.36C274.799 207.01 274.164 206.397 273.512 205.449L271.864 206.583ZM274.392 209.088C275.359 209.652 276.541 209.896 277.872 209.896V207.896C276.771 207.896 275.969 207.692 275.4 207.36L274.392 209.088ZM277.872 209.896H281.04V207.896H277.872V209.896ZM280.04 208.896V216H282.04V208.896H280.04ZM281.04 215H258.96V217H281.04V215ZM259.96 216V208.896H257.96V216H259.96ZM258.96 209.896H264.336V207.896H258.96V209.896ZM265.171 208.345L250.483 186.073L248.813 187.175L263.501 209.447L265.171 208.345ZM248.917 185.942L240.949 194.486L242.411 195.85L250.379 187.306L248.917 185.942ZM240.68 195.168V205.44H242.68V195.168H240.68ZM240.68 205.44C240.68 206.694 240.919 207.819 241.563 208.646L243.141 207.418C242.889 207.093 242.68 206.49 242.68 205.44H240.68ZM241.605 208.696C242.401 209.592 243.656 209.896 245.04 209.896V207.896C243.864 207.896 243.327 207.624 243.099 207.368L241.605 208.696ZM245.04 209.896H247.152V207.896H245.04V209.896ZM246.152 208.896V216H248.152V208.896H246.152ZM247.152 215H225.168V217H247.152V215ZM226.168 216V208.896H224.168V216H226.168ZM284.113 214.08L283.463 214.841L283.473 214.848L284.113 214.08ZM284.497 194.496L285.088 195.302L285.091 195.3L284.497 194.496ZM297.169 190.656L297.105 189.658L297.099 189.658L297.169 190.656ZM310.609 189.792L310.673 190.79L311.609 190.73V189.792H310.609ZM308.689 177.408L309.413 176.718L308.689 177.408ZM296.881 175.968L297.112 176.941L297.128 176.937L297.144 176.933L296.881 175.968ZM293.137 177.6L292.582 176.768L292.137 177.065V177.6H293.137ZM293.137 181.056V182.056H294.137V181.056H293.137ZM284.209 181.056H283.209V182.056H284.209V181.056ZM284.209 173.472L283.682 172.622L283.209 172.915V173.472H284.209ZM321.457 208.608L320.667 209.222L320.688 209.248L320.709 209.272L321.457 208.608ZM325.969 209.472H326.969V208.472H325.969V209.472ZM325.969 216V217H326.969V216H325.969ZM314.929 216L313.949 216.202L314.114 217H314.929V216ZM313.681 209.952L314.66 209.75L314.223 207.632L312.892 209.337L313.681 209.952ZM306.481 215.712L306.875 216.631L306.885 216.627L306.481 215.712ZM310.609 195.84H311.609V194.761L310.533 194.843L310.609 195.84ZM297.937 196.8L297.998 197.798L298.005 197.798L298.012 197.797L297.937 196.8ZM291.409 198.816L292.076 199.561L292.086 199.552L292.096 199.542L291.409 198.816ZM291.601 208.896L290.972 209.673L291.601 208.896ZM295.825 216.44C290.833 216.44 287.194 215.346 284.753 213.312L283.473 214.848C286.407 217.294 290.576 218.44 295.825 218.44V216.44ZM284.762 213.319C282.403 211.305 281.177 208.44 281.177 204.576H279.177C279.177 208.904 280.575 212.375 283.463 214.841L284.762 213.319ZM281.177 204.576C281.177 200.185 282.537 197.173 285.088 195.302L283.905 193.69C280.696 196.043 279.177 199.751 279.177 204.576H281.177ZM285.091 195.3C287.823 193.281 291.834 192.031 297.238 191.654L297.099 189.658C291.495 190.049 287.058 191.359 283.902 193.692L285.091 195.3ZM297.233 191.654L310.673 190.79L310.545 188.794L297.105 189.658L297.233 191.654ZM311.609 189.792V183.936H309.609V189.792H311.609ZM311.609 183.936C311.609 180.823 310.952 178.335 309.413 176.718L307.965 178.098C308.985 179.169 309.609 181.033 309.609 183.936H311.609ZM309.413 176.718C307.852 175.079 305.335 174.392 302.161 174.392V176.392C305.13 176.392 306.966 177.049 307.965 178.098L309.413 176.718ZM302.161 174.392C299.996 174.392 298.14 174.588 296.618 175.003L297.144 176.933C298.437 176.58 300.102 176.392 302.161 176.392V174.392ZM296.649 174.995C295.19 175.343 293.832 175.934 292.582 176.768L293.691 178.432C294.745 177.73 295.884 177.233 297.112 176.941L296.649 174.995ZM292.137 177.6V181.056H294.137V177.6H292.137ZM293.137 180.056H284.209V182.056H293.137V180.056ZM285.209 181.056V173.472H283.209V181.056H285.209ZM284.735 174.322C289.943 171.098 295.807 169.48 302.353 169.48V167.48C295.459 167.48 289.227 169.19 283.682 172.622L284.735 174.322ZM302.353 169.48C308.371 169.48 312.697 170.815 315.514 173.309C318.307 175.782 319.785 179.548 319.785 184.8H321.785C321.785 179.172 320.19 174.778 316.84 171.811C313.512 168.865 308.623 167.48 302.353 167.48V169.48ZM319.785 184.8V205.824H321.785V184.8H319.785ZM319.785 205.824C319.785 207.177 320.013 208.381 320.667 209.222L322.246 207.994C322.005 207.683 321.785 207.031 321.785 205.824H319.785ZM320.709 209.272C321.479 210.138 322.604 210.472 323.857 210.472V208.472C322.933 208.472 322.458 208.23 322.204 207.944L320.709 209.272ZM323.857 210.472H325.969V208.472H323.857V210.472ZM324.969 209.472V216H326.969V209.472H324.969ZM325.969 215H314.929V217H325.969V215ZM315.908 215.798L314.66 209.75L312.701 210.154L313.949 216.202L315.908 215.798ZM312.892 209.337C310.935 211.845 308.662 213.655 306.077 214.797L306.885 216.627C309.803 215.337 312.331 213.307 314.469 210.567L312.892 209.337ZM306.087 214.793C303.57 215.871 300.168 216.44 295.825 216.44V218.44C300.314 218.44 304.015 217.857 306.875 216.631L306.087 214.793ZM298.129 211.528C302.104 211.528 305.378 210.667 307.845 208.835L306.652 207.229C304.639 208.725 301.833 209.528 298.129 209.528V211.528ZM307.845 208.835C310.395 206.941 311.609 204.08 311.609 200.448H309.609C309.609 203.6 308.583 205.795 306.652 207.229L307.845 208.835ZM311.609 200.448V195.84H309.609V200.448H311.609ZM310.533 194.843L297.861 195.803L298.012 197.797L310.684 196.837L310.533 194.843ZM297.876 195.802C294.685 195.997 292.204 196.686 290.721 198.09L292.096 199.542C293.046 198.642 294.917 197.987 297.998 197.798L297.876 195.802ZM290.742 198.071C289.228 199.425 288.585 201.52 288.585 204.096H290.585C290.585 201.808 291.158 200.383 292.076 199.561L290.742 198.071ZM288.585 204.096C288.585 206.436 289.341 208.353 290.972 209.673L292.23 208.119C291.172 207.263 290.585 205.98 290.585 204.096H288.585ZM290.972 209.673C292.584 210.979 295.044 211.528 298.129 211.528V209.528C295.197 209.528 293.305 208.989 292.23 208.119L290.972 209.673ZM330.77 179.232L331.742 178.998L331.74 178.989L330.77 179.232ZM329.425 177.12L328.871 177.952L328.891 177.965L328.911 177.977L329.425 177.12ZM324.146 176.544H323.146V177.544H324.146V176.544ZM324.146 169.92V168.92H323.146V169.92H324.146ZM337.49 169.92L338.463 169.693L338.283 168.92H337.49V169.92ZM345.553 204.48L344.58 204.707L345.419 208.302L346.509 204.775L345.553 204.48ZM354.962 174.048V173.048H354.224L354.006 173.753L354.962 174.048ZM362.45 174.048L363.405 173.753L363.187 173.048H362.45V174.048ZM371.857 204.48L370.902 204.775L371.981 208.266L372.83 204.712L371.857 204.48ZM380.113 169.92V168.92H379.324L379.141 169.688L380.113 169.92ZM393.361 169.92H394.361V168.92H393.361V169.92ZM393.361 176.544V177.544H394.361V176.544H393.361ZM387.986 177.12L387.471 176.263L387.451 176.275L387.431 176.288L387.986 177.12ZM386.738 179.232L385.767 178.989L385.765 178.998L386.738 179.232ZM377.906 216V217H378.694L378.878 216.234L377.906 216ZM367.922 216L366.967 216.297L367.186 217H367.922V216ZM358.801 186.72L359.756 186.423L358.807 183.373L357.848 186.42L358.801 186.72ZM349.586 216V217H350.319L350.539 216.3L349.586 216ZM339.602 216L338.629 216.234L338.813 217H339.602V216ZM331.74 178.989C331.446 177.816 330.888 176.831 329.94 176.263L328.911 177.977C329.243 178.177 329.581 178.6 329.799 179.475L331.74 178.989ZM329.98 176.288C329.146 175.732 327.931 175.544 326.546 175.544V177.544C327.848 177.544 328.553 177.74 328.871 177.952L329.98 176.288ZM326.546 175.544H324.146V177.544H326.546V175.544ZM325.146 176.544V169.92H323.146V176.544H325.146ZM324.146 170.92H337.49V168.92H324.146V170.92ZM336.516 170.147L344.58 204.707L346.527 204.253L338.463 169.693L336.516 170.147ZM346.509 204.775L355.917 174.343L354.006 173.753L344.598 204.185L346.509 204.775ZM354.962 175.048H362.45V173.048H354.962V175.048ZM361.494 174.343L370.902 204.775L372.813 204.185L363.405 173.753L361.494 174.343ZM372.83 204.712L381.086 170.152L379.141 169.688L370.885 204.248L372.83 204.712ZM380.113 170.92H393.361V168.92H380.113V170.92ZM392.361 169.92V176.544H394.361V169.92H392.361ZM393.361 175.544H390.962V177.544H393.361V175.544ZM390.962 175.544C389.561 175.544 388.347 175.737 387.471 176.263L388.5 177.977C388.904 177.735 389.674 177.544 390.962 177.544V175.544ZM387.431 176.288C386.562 176.867 386.053 177.847 385.767 178.989L387.708 179.475C387.934 178.569 388.257 178.141 388.54 177.952L387.431 176.288ZM385.765 178.998L376.933 215.766L378.878 216.234L387.71 179.466L385.765 178.998ZM377.906 215H367.922V217H377.906V215ZM368.876 215.703L359.756 186.423L357.847 187.017L366.967 216.297L368.876 215.703ZM357.848 186.42L348.632 215.7L350.539 216.3L359.755 187.02L357.848 186.42ZM349.586 215H339.602V217H349.586V215ZM340.574 215.766L331.742 178.998L329.797 179.466L338.629 216.234L340.574 215.766ZM397.363 214.08L396.713 214.841L396.723 214.848L397.363 214.08ZM397.747 194.496L398.338 195.302L398.341 195.3L397.747 194.496ZM410.419 190.656L410.355 189.658L410.349 189.658L410.419 190.656ZM423.859 189.792L423.923 190.79L424.859 190.73V189.792H423.859ZM421.939 177.408L422.663 176.718L421.939 177.408ZM410.131 175.968L410.362 176.941L410.378 176.937L410.394 176.933L410.131 175.968ZM406.387 177.6L405.832 176.768L405.387 177.065V177.6H406.387ZM406.387 181.056V182.056H407.387V181.056H406.387ZM397.459 181.056H396.459V182.056H397.459V181.056ZM397.459 173.472L396.932 172.622L396.459 172.915V173.472H397.459ZM434.707 208.608L433.917 209.222L433.938 209.248L433.959 209.272L434.707 208.608ZM439.219 209.472H440.219V208.472H439.219V209.472ZM439.219 216V217H440.219V216H439.219ZM428.179 216L427.199 216.202L427.364 217H428.179V216ZM426.931 209.952L427.91 209.75L427.473 207.632L426.142 209.337L426.931 209.952ZM419.731 215.712L420.125 216.631L420.135 216.627L419.731 215.712ZM423.859 195.84H424.859V194.761L423.783 194.843L423.859 195.84ZM411.187 196.8L411.248 197.798L411.255 197.798L411.262 197.797L411.187 196.8ZM404.659 198.816L405.326 199.561L405.336 199.552L405.346 199.542L404.659 198.816ZM404.851 208.896L404.222 209.673L404.851 208.896ZM409.075 216.44C404.083 216.44 400.444 215.346 398.003 213.312L396.723 214.848C399.657 217.294 403.826 218.44 409.075 218.44V216.44ZM398.012 213.319C395.653 211.305 394.427 208.44 394.427 204.576H392.427C392.427 208.904 393.825 212.375 396.713 214.841L398.012 213.319ZM394.427 204.576C394.427 200.185 395.787 197.173 398.338 195.302L397.155 193.69C393.946 196.043 392.427 199.751 392.427 204.576H394.427ZM398.341 195.3C401.073 193.281 405.084 192.031 410.488 191.654L410.349 189.658C404.745 190.049 400.308 191.359 397.152 193.692L398.341 195.3ZM410.483 191.654L423.923 190.79L423.795 188.794L410.355 189.658L410.483 191.654ZM424.859 189.792V183.936H422.859V189.792H424.859ZM424.859 183.936C424.859 180.823 424.202 178.335 422.663 176.718L421.215 178.098C422.235 179.169 422.859 181.033 422.859 183.936H424.859ZM422.663 176.718C421.102 175.079 418.585 174.392 415.411 174.392V176.392C418.38 176.392 420.216 177.049 421.215 178.098L422.663 176.718ZM415.411 174.392C413.246 174.392 411.39 174.588 409.868 175.003L410.394 176.933C411.687 176.58 413.352 176.392 415.411 176.392V174.392ZM409.899 174.995C408.44 175.343 407.082 175.934 405.832 176.768L406.941 178.432C407.995 177.73 409.134 177.233 410.362 176.941L409.899 174.995ZM405.387 177.6V181.056H407.387V177.6H405.387ZM406.387 180.056H397.459V182.056H406.387V180.056ZM398.459 181.056V173.472H396.459V181.056H398.459ZM397.985 174.322C403.193 171.098 409.057 169.48 415.603 169.48V167.48C408.709 167.48 402.477 169.19 396.932 172.622L397.985 174.322ZM415.603 169.48C421.621 169.48 425.947 170.815 428.764 173.309C431.557 175.782 433.035 179.548 433.035 184.8H435.035C435.035 179.172 433.44 174.778 430.09 171.811C426.762 168.865 421.873 167.48 415.603 167.48V169.48ZM433.035 184.8V205.824H435.035V184.8H433.035ZM433.035 205.824C433.035 207.177 433.263 208.381 433.917 209.222L435.496 207.994C435.255 207.683 435.035 207.031 435.035 205.824H433.035ZM433.959 209.272C434.729 210.138 435.854 210.472 437.107 210.472V208.472C436.183 208.472 435.708 208.23 435.454 207.944L433.959 209.272ZM437.107 210.472H439.219V208.472H437.107V210.472ZM438.219 209.472V216H440.219V209.472H438.219ZM439.219 215H428.179V217H439.219V215ZM429.158 215.798L427.91 209.75L425.951 210.154L427.199 216.202L429.158 215.798ZM426.142 209.337C424.185 211.845 421.912 213.655 419.327 214.797L420.135 216.627C423.053 215.337 425.581 213.307 427.719 210.567L426.142 209.337ZM419.337 214.793C416.82 215.871 413.418 216.44 409.075 216.44V218.44C413.564 218.44 417.265 217.857 420.125 216.631L419.337 214.793ZM411.379 211.528C415.354 211.528 418.628 210.667 421.095 208.835L419.902 207.229C417.889 208.725 415.083 209.528 411.379 209.528V211.528ZM421.095 208.835C423.645 206.941 424.859 204.08 424.859 200.448H422.859C422.859 203.6 421.833 205.795 419.902 207.229L421.095 208.835ZM424.859 200.448V195.84H422.859V200.448H424.859ZM423.783 194.843L411.111 195.803L411.262 197.797L423.934 196.837L423.783 194.843ZM411.126 195.802C407.935 195.997 405.454 196.686 403.971 198.09L405.346 199.542C406.296 198.642 408.167 197.987 411.248 197.798L411.126 195.802ZM403.992 198.071C402.478 199.425 401.835 201.52 401.835 204.096H403.835C403.835 201.808 404.408 200.383 405.326 199.561L403.992 198.071ZM401.835 204.096C401.835 206.436 402.591 208.353 404.222 209.673L405.48 208.119C404.422 207.263 403.835 205.98 403.835 204.096H401.835ZM404.222 209.673C405.834 210.979 408.294 211.528 411.379 211.528V209.528C408.447 209.528 406.555 208.989 405.48 208.119L404.222 209.673ZM443.23 209.184V208.184H442.23V209.184H443.23ZM448.51 159.84L447.758 160.499L447.78 160.524L447.803 160.547L448.51 159.84ZM443.807 159.072H442.807V160.072H443.807V159.072ZM443.807 152.448V151.448H442.807V152.448H443.807ZM464.447 152.448H465.447V151.448H464.447V152.448ZM464.447 159.072V160.072H465.447V159.072H464.447ZM459.359 159.84L460.066 160.547L460.089 160.524L460.111 160.499L459.359 159.84ZM458.686 190.56H457.686V192.797L459.353 191.305L458.686 190.56ZM474.238 176.64L474.905 177.385L476.855 175.64H474.238V176.64ZM469.535 176.64H468.535V177.64H469.535V176.64ZM469.535 169.92V168.92H468.535V169.92H469.535ZM491.423 169.92H492.423V168.92H491.423V169.92ZM491.423 176.64V177.64H492.423V176.64H491.423ZM484.703 177.024L485.15 177.918L484.703 177.024ZM482.591 178.56L481.94 177.801L481.93 177.809L482.591 178.56ZM473.087 186.912L472.426 186.161L471.805 186.707L472.225 187.42L473.087 186.912ZM484.703 206.592L483.841 207.1L483.848 207.111L483.854 207.122L484.703 206.592ZM486.526 208.704L485.972 209.536L486.024 209.571L486.079 209.598L486.526 208.704ZM493.439 209.184H494.439V208.184H493.439V209.184ZM493.439 216V217H494.439V216H493.439ZM480.574 216L479.719 216.517L480.01 217H480.574V216ZM466.367 192.48L467.222 191.963L466.601 190.935L465.703 191.732L466.367 192.48ZM458.686 199.296L458.023 198.548L457.686 198.846V199.296H458.686ZM459.359 208.512L458.606 209.171L458.65 209.221L458.7 209.265L459.359 208.512ZM465.023 209.184H466.023V208.184H465.023V209.184ZM465.023 216V217H466.023V216H465.023ZM443.23 216H442.23V217H443.23V216ZM443.23 210.184H445.822V208.184H443.23V210.184ZM445.822 210.184C447.134 210.184 448.368 209.972 449.122 209.219L447.707 207.805C447.565 207.948 447.071 208.184 445.822 208.184V210.184ZM449.122 209.219C449.914 208.426 450.182 207.231 450.182 205.92H448.182C448.182 207.041 447.939 207.574 447.707 207.805L449.122 209.219ZM450.182 205.92V162.336H448.182V205.92H450.182ZM450.182 162.336C450.182 161.071 449.964 159.88 449.218 159.133L447.803 160.547C447.953 160.696 448.182 161.169 448.182 162.336H450.182ZM449.263 159.181C448.52 158.332 447.307 158.072 446.014 158.072V160.072C447.154 160.072 447.605 160.324 447.758 160.499L449.263 159.181ZM446.014 158.072H443.807V160.072H446.014V158.072ZM444.807 159.072V152.448H442.807V159.072H444.807ZM443.807 153.448H464.447V151.448H443.807V153.448ZM463.447 152.448V159.072H465.447V152.448H463.447ZM464.447 158.072H461.758V160.072H464.447V158.072ZM461.758 158.072C460.51 158.072 459.341 158.341 458.606 159.181L460.111 160.499C460.272 160.315 460.703 160.072 461.758 160.072V158.072ZM458.651 159.133C457.905 159.88 457.686 161.071 457.686 162.336H459.686C459.686 161.169 459.916 160.696 460.066 160.547L458.651 159.133ZM457.686 162.336V190.56H459.686V162.336H457.686ZM459.353 191.305L474.905 177.385L473.572 175.895L458.02 189.815L459.353 191.305ZM474.238 175.64H469.535V177.64H474.238V175.64ZM470.535 176.64V169.92H468.535V176.64H470.535ZM469.535 170.92H491.423V168.92H469.535V170.92ZM490.423 169.92V176.64H492.423V169.92H490.423ZM491.423 175.64H487.007V177.64H491.423V175.64ZM487.007 175.64C485.931 175.64 484.976 175.769 484.255 176.13L485.15 177.918C485.453 177.767 486.034 177.64 487.007 177.64V175.64ZM484.255 176.13C483.628 176.443 482.847 177.023 481.94 177.801L483.241 179.319C484.126 178.561 484.753 178.117 485.15 177.918L484.255 176.13ZM481.93 177.809L472.426 186.161L473.747 187.663L483.251 179.311L481.93 177.809ZM472.225 187.42L483.841 207.1L485.564 206.084L473.948 186.404L472.225 187.42ZM483.854 207.122C484.522 208.19 485.221 209.035 485.972 209.536L487.081 207.872C486.681 207.605 486.163 207.042 485.551 206.062L483.854 207.122ZM486.079 209.598C486.928 210.023 488.075 210.184 489.406 210.184V208.184C488.178 208.184 487.405 208.025 486.974 207.81L486.079 209.598ZM489.406 210.184H493.439V208.184H489.406V210.184ZM492.439 209.184V216H494.439V209.184H492.439ZM493.439 215H480.574V217H493.439V215ZM481.43 215.483L467.222 191.963L465.511 192.997L479.719 216.517L481.43 215.483ZM465.703 191.732L458.023 198.548L459.35 200.044L467.03 193.228L465.703 191.732ZM457.686 199.296V205.92H459.686V199.296H457.686ZM457.686 205.92C457.686 207.207 457.913 208.379 458.606 209.171L460.111 207.853C459.908 207.621 459.686 207.065 459.686 205.92H457.686ZM458.7 209.265C459.498 209.963 460.712 210.184 462.047 210.184V208.184C460.821 208.184 460.243 207.957 460.017 207.759L458.7 209.265ZM462.047 210.184H465.023V208.184H462.047V210.184ZM464.023 209.184V216H466.023V209.184H464.023ZM465.023 215H443.23V217H465.023V215ZM444.23 216V209.184H442.23V216H444.23ZM498.425 214.08L497.776 214.841L497.785 214.848L498.425 214.08ZM498.809 194.496L499.401 195.302L499.404 195.3L498.809 194.496ZM511.481 190.656L511.417 189.658L511.412 189.658L511.481 190.656ZM524.921 189.792L524.985 190.79L525.921 190.73V189.792H524.921ZM523.001 177.408L523.725 176.718L523.001 177.408ZM511.193 175.968L511.425 176.941L511.441 176.937L511.456 176.933L511.193 175.968ZM507.449 177.6L506.895 176.768L506.449 177.065V177.6H507.449ZM507.449 181.056V182.056H508.449V181.056H507.449ZM498.521 181.056H497.521V182.056H498.521V181.056ZM498.521 173.472L497.995 172.622L497.521 172.915V173.472H498.521ZM535.769 208.608L534.98 209.222L535 209.248L535.022 209.272L535.769 208.608ZM540.281 209.472H541.281V208.472H540.281V209.472ZM540.281 216V217H541.281V216H540.281ZM529.241 216L528.262 216.202L528.427 217H529.241V216ZM527.993 209.952L528.973 209.75L528.536 207.632L527.205 209.337L527.993 209.952ZM520.793 215.712L521.187 216.631L521.197 216.627L520.793 215.712ZM524.921 195.84H525.921V194.761L524.846 194.843L524.921 195.84ZM512.249 196.8L512.31 197.798L512.318 197.798L512.325 197.797L512.249 196.8ZM505.721 198.816L506.388 199.561L506.399 199.552L506.409 199.542L505.721 198.816ZM505.913 208.896L505.284 209.673L505.913 208.896ZM510.137 216.44C505.146 216.44 501.507 215.346 499.065 213.312L497.785 214.848C500.72 217.294 504.889 218.44 510.137 218.44V216.44ZM499.075 213.319C496.715 211.305 495.489 208.44 495.489 204.576H493.489C493.489 208.904 494.887 212.375 497.776 214.841L499.075 213.319ZM495.489 204.576C495.489 200.185 496.85 197.173 499.401 195.302L498.218 193.69C495.009 196.043 493.489 199.751 493.489 204.576H495.489ZM499.404 195.3C502.136 193.281 506.147 192.031 511.551 191.654L511.412 189.658C505.808 190.049 501.371 191.359 498.215 193.692L499.404 195.3ZM511.545 191.654L524.985 190.79L524.857 188.794L511.417 189.658L511.545 191.654ZM525.921 189.792V183.936H523.921V189.792H525.921ZM525.921 183.936C525.921 180.823 525.265 178.335 523.725 176.718L522.277 178.098C523.298 179.169 523.921 181.033 523.921 183.936H525.921ZM523.725 176.718C522.164 175.079 519.648 174.392 516.473 174.392V176.392C519.443 176.392 521.278 177.049 522.277 178.098L523.725 176.718ZM516.473 174.392C514.308 174.392 512.453 174.588 510.93 175.003L511.456 176.933C512.75 176.58 514.414 176.392 516.473 176.392V174.392ZM510.962 174.995C509.502 175.343 508.145 175.934 506.895 176.768L508.004 178.432C509.058 177.73 510.196 177.233 511.425 176.941L510.962 174.995ZM506.449 177.6V181.056H508.449V177.6H506.449ZM507.449 180.056H498.521V182.056H507.449V180.056ZM499.521 181.056V173.472H497.521V181.056H499.521ZM499.048 174.322C504.255 171.098 510.119 169.48 516.665 169.48V167.48C509.771 167.48 503.539 169.19 497.995 172.622L499.048 174.322ZM516.665 169.48C522.683 169.48 527.01 170.815 529.826 173.309C532.62 175.782 534.097 179.548 534.097 184.8H536.097C536.097 179.172 534.503 174.778 531.152 171.811C527.825 168.865 522.935 167.48 516.665 167.48V169.48ZM534.097 184.8V205.824H536.097V184.8H534.097ZM534.097 205.824C534.097 207.177 534.325 208.381 534.98 209.222L536.559 207.994C536.317 207.683 536.097 207.031 536.097 205.824H534.097ZM535.022 209.272C535.792 210.138 536.917 210.472 538.169 210.472V208.472C537.246 208.472 536.771 208.23 536.517 207.944L535.022 209.272ZM538.169 210.472H540.281V208.472H538.169V210.472ZM539.281 209.472V216H541.281V209.472H539.281ZM540.281 215H529.241V217H540.281V215ZM530.221 215.798L528.973 209.75L527.014 210.154L528.262 216.202L530.221 215.798ZM527.205 209.337C525.247 211.845 522.975 213.655 520.389 214.797L521.197 216.627C524.116 215.337 526.643 213.307 528.782 210.567L527.205 209.337ZM520.399 214.793C517.883 215.871 514.48 216.44 510.137 216.44V218.44C514.626 218.44 518.328 217.857 521.187 216.631L520.399 214.793ZM512.441 211.528C516.417 211.528 519.691 210.667 522.158 208.835L520.965 207.229C518.952 208.725 516.146 209.528 512.441 209.528V211.528ZM522.158 208.835C524.707 206.941 525.921 204.08 525.921 200.448H523.921C523.921 203.6 522.895 205.795 520.965 207.229L522.158 208.835ZM525.921 200.448V195.84H523.921V200.448H525.921ZM524.846 194.843L512.174 195.803L512.325 197.797L524.997 196.837L524.846 194.843ZM512.188 195.802C508.997 195.997 506.516 196.686 505.034 198.09L506.409 199.542C507.358 198.642 509.229 197.987 512.31 197.798L512.188 195.802ZM505.054 198.071C503.54 199.425 502.897 201.52 502.897 204.096H504.897C504.897 201.808 505.47 200.383 506.388 199.561L505.054 198.071ZM502.897 204.096C502.897 206.436 503.654 208.353 505.284 209.673L506.542 208.119C505.485 207.263 504.897 205.98 504.897 204.096H502.897ZM505.284 209.673C506.897 210.979 509.357 211.528 512.441 211.528V209.528C509.51 209.528 507.618 208.989 506.542 208.119L505.284 209.673Z" fill="black"/>
</g>
</mask>
<g mask="url(#mask1_9_12)">
<path id="wave3" d="M256 208.246C263.678 201.08 287.548 190.894 321.6 207.478C355.651 224.062 388.201 214.388 400.219 207.478C410.401 198.649 438.878 186.441 471.327 208.246C503.777 230.051 560.63 216.82 585 207.478V257L256 250.474V208.246Z" fill="#C4C4C4"/>
<path id="wave2" d="M300 205.246C307.678 198.08 331.548 187.894 365.6 204.478C399.651 221.062 432.201 211.388 444.219 204.478C454.401 195.649 482.878 183.441 515.327 205.246C547.777 227.051 604.63 213.82 629 204.478V254L300 247.474V205.246Z" fill="#C4C4C4"/>
<path id="wave1" d="M222 206.045C229.678 198.997 253.548 188.978 287.6 205.29C321.651 221.602 354.201 212.087 366.219 205.29C378.5 201.5 397.5 194.5 437.327 206.045C474.686 216.875 525.5 195 551 205.29V254L222 247.581V206.045Z" fill="#C4C4C4"/>
<path id="Kawaka_2" d="M225.168 208.896V207.896H224.168V208.896H225.168ZM230.64 161.76L229.893 162.424L229.932 162.468L229.976 162.507L230.64 161.76ZM225.744 160.896H224.744V161.896H225.744V160.896ZM225.744 153.888V152.888H224.744V153.888H225.744ZM246.576 153.888H247.576V152.888H246.576V153.888ZM246.576 160.896V161.896H247.576V160.896H246.576ZM242.352 161.76L241.605 161.096L241.583 161.12L241.563 161.146L242.352 161.76ZM241.68 184.704H240.68V187.245L242.412 185.386L241.68 184.704ZM263.856 160.896L264.588 161.578L266.154 159.896H263.856V160.896ZM258.96 160.896H257.96V161.896H258.96V160.896ZM258.96 153.888V152.888H257.96V153.888H258.96ZM280.08 153.888H281.08V152.888H280.08V153.888ZM280.08 161.28V162.28H281.08V161.28H280.08ZM273.648 161.856L274.127 162.734H274.127L273.648 161.856ZM271.248 163.872L271.974 164.56L271.979 164.554L271.248 163.872ZM255.696 180.288L254.97 179.6L254.424 180.177L254.862 180.839L255.696 180.288ZM272.688 206.016L271.854 206.567L271.859 206.575L271.864 206.583L272.688 206.016ZM274.896 208.224L274.392 209.088L274.896 208.224ZM281.04 208.896H282.04V207.896H281.04V208.896ZM281.04 216V217H282.04V216H281.04ZM258.96 216H257.96V217H258.96V216ZM258.96 208.896V207.896H257.96V208.896H258.96ZM264.336 208.896V209.896H266.193L265.171 208.345L264.336 208.896ZM249.648 186.624L250.483 186.073L249.783 185.013L248.917 185.942L249.648 186.624ZM241.68 195.168L240.949 194.486L240.68 194.774V195.168H241.68ZM242.352 208.032L241.563 208.646L241.583 208.672L241.605 208.696L242.352 208.032ZM247.152 208.896H248.152V207.896H247.152V208.896ZM247.152 216V217H248.152V216H247.152ZM225.168 216H224.168V217H225.168V216ZM225.168 209.896H227.952V207.896H225.168V209.896ZM227.952 209.896C229.31 209.896 230.547 209.635 231.347 208.835L229.933 207.421C229.709 207.645 229.154 207.896 227.952 207.896V209.896ZM231.347 208.835C232.186 207.997 232.504 206.792 232.504 205.44H230.504C230.504 206.52 230.246 207.107 229.933 207.421L231.347 208.835ZM232.504 205.44V164.352H230.504V205.44H232.504ZM232.504 164.352C232.504 163.013 232.191 161.801 231.304 161.013L229.976 162.507C230.241 162.743 230.504 163.259 230.504 164.352H232.504ZM231.387 161.096C230.591 160.2 229.336 159.896 227.952 159.896V161.896C229.128 161.896 229.665 162.168 229.893 162.424L231.387 161.096ZM227.952 159.896H225.744V161.896H227.952V159.896ZM226.744 160.896V153.888H224.744V160.896H226.744ZM225.744 154.888H246.576V152.888H225.744V154.888ZM245.576 153.888V160.896H247.576V153.888H245.576ZM246.576 159.896H244.848V161.896H246.576V159.896ZM244.848 159.896C243.553 159.896 242.384 160.219 241.605 161.096L243.099 162.424C243.344 162.149 243.839 161.896 244.848 161.896V159.896ZM241.563 161.146C240.919 161.973 240.68 163.098 240.68 164.352H242.68C242.68 163.302 242.889 162.699 243.141 162.374L241.563 161.146ZM240.68 164.352V184.704H242.68V164.352H240.68ZM242.412 185.386L264.588 161.578L263.124 160.214L240.948 184.022L242.412 185.386ZM263.856 159.896H258.96V161.896H263.856V159.896ZM259.96 160.896V153.888H257.96V160.896H259.96ZM258.96 154.888H280.08V152.888H258.96V154.888ZM279.08 153.888V161.28H281.08V153.888H279.08ZM280.08 160.28H276.528V162.28H280.08V160.28ZM276.528 160.28C275.224 160.28 274.077 160.483 273.169 160.978L274.127 162.734C274.627 162.461 275.4 162.28 276.528 162.28V160.28ZM273.169 160.978C272.33 161.436 271.446 162.195 270.517 163.19L271.979 164.554C272.842 163.629 273.558 163.044 274.127 162.734L273.169 160.978ZM270.522 163.184L254.97 179.6L256.422 180.976L271.974 164.56L270.522 163.184ZM254.862 180.839L271.854 206.567L273.522 205.465L256.53 179.737L254.862 180.839ZM271.864 206.583C272.62 207.683 273.457 208.542 274.392 209.088L275.4 207.36C274.799 207.01 274.164 206.397 273.512 205.449L271.864 206.583ZM274.392 209.088C275.359 209.652 276.541 209.896 277.872 209.896V207.896C276.771 207.896 275.969 207.692 275.4 207.36L274.392 209.088ZM277.872 209.896H281.04V207.896H277.872V209.896ZM280.04 208.896V216H282.04V208.896H280.04ZM281.04 215H258.96V217H281.04V215ZM259.96 216V208.896H257.96V216H259.96ZM258.96 209.896H264.336V207.896H258.96V209.896ZM265.171 208.345L250.483 186.073L248.813 187.175L263.501 209.447L265.171 208.345ZM248.917 185.942L240.949 194.486L242.411 195.85L250.379 187.306L248.917 185.942ZM240.68 195.168V205.44H242.68V195.168H240.68ZM240.68 205.44C240.68 206.694 240.919 207.819 241.563 208.646L243.141 207.418C242.889 207.093 242.68 206.49 242.68 205.44H240.68ZM241.605 208.696C242.401 209.592 243.656 209.896 245.04 209.896V207.896C243.864 207.896 243.327 207.624 243.099 207.368L241.605 208.696ZM245.04 209.896H247.152V207.896H245.04V209.896ZM246.152 208.896V216H248.152V208.896H246.152ZM247.152 215H225.168V217H247.152V215ZM226.168 216V208.896H224.168V216H226.168ZM284.113 214.08L283.463 214.841L283.473 214.848L284.113 214.08ZM284.497 194.496L285.088 195.302L285.091 195.3L284.497 194.496ZM297.169 190.656L297.105 189.658L297.099 189.658L297.169 190.656ZM310.609 189.792L310.673 190.79L311.609 190.73V189.792H310.609ZM308.689 177.408L309.413 176.718L308.689 177.408ZM296.881 175.968L297.112 176.941L297.128 176.937L297.144 176.933L296.881 175.968ZM293.137 177.6L292.582 176.768L292.137 177.065V177.6H293.137ZM293.137 181.056V182.056H294.137V181.056H293.137ZM284.209 181.056H283.209V182.056H284.209V181.056ZM284.209 173.472L283.682 172.622L283.209 172.915V173.472H284.209ZM321.457 208.608L320.667 209.222L320.688 209.248L320.709 209.272L321.457 208.608ZM325.969 209.472H326.969V208.472H325.969V209.472ZM325.969 216V217H326.969V216H325.969ZM314.929 216L313.949 216.202L314.114 217H314.929V216ZM313.681 209.952L314.66 209.75L314.223 207.632L312.892 209.337L313.681 209.952ZM306.481 215.712L306.875 216.631L306.885 216.627L306.481 215.712ZM310.609 195.84H311.609V194.761L310.533 194.843L310.609 195.84ZM297.937 196.8L297.998 197.798L298.005 197.798L298.012 197.797L297.937 196.8ZM291.409 198.816L292.076 199.561L292.086 199.552L292.096 199.542L291.409 198.816ZM291.601 208.896L290.972 209.673L291.601 208.896ZM295.825 216.44C290.833 216.44 287.194 215.346 284.753 213.312L283.473 214.848C286.407 217.294 290.576 218.44 295.825 218.44V216.44ZM284.762 213.319C282.403 211.305 281.177 208.44 281.177 204.576H279.177C279.177 208.904 280.575 212.375 283.463 214.841L284.762 213.319ZM281.177 204.576C281.177 200.185 282.537 197.173 285.088 195.302L283.905 193.69C280.696 196.043 279.177 199.751 279.177 204.576H281.177ZM285.091 195.3C287.823 193.281 291.834 192.031 297.238 191.654L297.099 189.658C291.495 190.049 287.058 191.359 283.902 193.692L285.091 195.3ZM297.233 191.654L310.673 190.79L310.545 188.794L297.105 189.658L297.233 191.654ZM311.609 189.792V183.936H309.609V189.792H311.609ZM311.609 183.936C311.609 180.823 310.952 178.335 309.413 176.718L307.965 178.098C308.985 179.169 309.609 181.033 309.609 183.936H311.609ZM309.413 176.718C307.852 175.079 305.335 174.392 302.161 174.392V176.392C305.13 176.392 306.966 177.049 307.965 178.098L309.413 176.718ZM302.161 174.392C299.996 174.392 298.14 174.588 296.618 175.003L297.144 176.933C298.437 176.58 300.102 176.392 302.161 176.392V174.392ZM296.649 174.995C295.19 175.343 293.832 175.934 292.582 176.768L293.691 178.432C294.745 177.73 295.884 177.233 297.112 176.941L296.649 174.995ZM292.137 177.6V181.056H294.137V177.6H292.137ZM293.137 180.056H284.209V182.056H293.137V180.056ZM285.209 181.056V173.472H283.209V181.056H285.209ZM284.735 174.322C289.943 171.098 295.807 169.48 302.353 169.48V167.48C295.459 167.48 289.227 169.19 283.682 172.622L284.735 174.322ZM302.353 169.48C308.371 169.48 312.697 170.815 315.514 173.309C318.307 175.782 319.785 179.548 319.785 184.8H321.785C321.785 179.172 320.19 174.778 316.84 171.811C313.512 168.865 308.623 167.48 302.353 167.48V169.48ZM319.785 184.8V205.824H321.785V184.8H319.785ZM319.785 205.824C319.785 207.177 320.013 208.381 320.667 209.222L322.246 207.994C322.005 207.683 321.785 207.031 321.785 205.824H319.785ZM320.709 209.272C321.479 210.138 322.604 210.472 323.857 210.472V208.472C322.933 208.472 322.458 208.23 322.204 207.944L320.709 209.272ZM323.857 210.472H325.969V208.472H323.857V210.472ZM324.969 209.472V216H326.969V209.472H324.969ZM325.969 215H314.929V217H325.969V215ZM315.908 215.798L314.66 209.75L312.701 210.154L313.949 216.202L315.908 215.798ZM312.892 209.337C310.935 211.845 308.662 213.655 306.077 214.797L306.885 216.627C309.803 215.337 312.331 213.307 314.469 210.567L312.892 209.337ZM306.087 214.793C303.57 215.871 300.168 216.44 295.825 216.44V218.44C300.314 218.44 304.015 217.857 306.875 216.631L306.087 214.793ZM298.129 211.528C302.104 211.528 305.378 210.667 307.845 208.835L306.652 207.229C304.639 208.725 301.833 209.528 298.129 209.528V211.528ZM307.845 208.835C310.395 206.941 311.609 204.08 311.609 200.448H309.609C309.609 203.6 308.583 205.795 306.652 207.229L307.845 208.835ZM311.609 200.448V195.84H309.609V200.448H311.609ZM310.533 194.843L297.861 195.803L298.012 197.797L310.684 196.837L310.533 194.843ZM297.876 195.802C294.685 195.997 292.204 196.686 290.721 198.09L292.096 199.542C293.046 198.642 294.917 197.987 297.998 197.798L297.876 195.802ZM290.742 198.071C289.228 199.425 288.585 201.52 288.585 204.096H290.585C290.585 201.808 291.158 200.383 292.076 199.561L290.742 198.071ZM288.585 204.096C288.585 206.436 289.341 208.353 290.972 209.673L292.23 208.119C291.172 207.263 290.585 205.98 290.585 204.096H288.585ZM290.972 209.673C292.584 210.979 295.044 211.528 298.129 211.528V209.528C295.197 209.528 293.305 208.989 292.23 208.119L290.972 209.673ZM330.77 179.232L331.742 178.998L331.74 178.989L330.77 179.232ZM329.425 177.12L328.871 177.952L328.891 177.965L328.911 177.977L329.425 177.12ZM324.146 176.544H323.146V177.544H324.146V176.544ZM324.146 169.92V168.92H323.146V169.92H324.146ZM337.49 169.92L338.463 169.693L338.283 168.92H337.49V169.92ZM345.553 204.48L344.58 204.707L345.419 208.302L346.509 204.775L345.553 204.48ZM354.962 174.048V173.048H354.224L354.006 173.753L354.962 174.048ZM362.45 174.048L363.405 173.753L363.187 173.048H362.45V174.048ZM371.857 204.48L370.902 204.775L371.981 208.266L372.83 204.712L371.857 204.48ZM380.113 169.92V168.92H379.324L379.141 169.688L380.113 169.92ZM393.361 169.92H394.361V168.92H393.361V169.92ZM393.361 176.544V177.544H394.361V176.544H393.361ZM387.986 177.12L387.471 176.263L387.451 176.275L387.431 176.288L387.986 177.12ZM386.738 179.232L385.767 178.989L385.765 178.998L386.738 179.232ZM377.906 216V217H378.694L378.878 216.234L377.906 216ZM367.922 216L366.967 216.297L367.186 217H367.922V216ZM358.801 186.72L359.756 186.423L358.807 183.373L357.848 186.42L358.801 186.72ZM349.586 216V217H350.319L350.539 216.3L349.586 216ZM339.602 216L338.629 216.234L338.813 217H339.602V216ZM331.74 178.989C331.446 177.816 330.888 176.831 329.94 176.263L328.911 177.977C329.243 178.177 329.581 178.6 329.799 179.475L331.74 178.989ZM329.98 176.288C329.146 175.732 327.931 175.544 326.546 175.544V177.544C327.848 177.544 328.553 177.74 328.871 177.952L329.98 176.288ZM326.546 175.544H324.146V177.544H326.546V175.544ZM325.146 176.544V169.92H323.146V176.544H325.146ZM324.146 170.92H337.49V168.92H324.146V170.92ZM336.516 170.147L344.58 204.707L346.527 204.253L338.463 169.693L336.516 170.147ZM346.509 204.775L355.917 174.343L354.006 173.753L344.598 204.185L346.509 204.775ZM354.962 175.048H362.45V173.048H354.962V175.048ZM361.494 174.343L370.902 204.775L372.813 204.185L363.405 173.753L361.494 174.343ZM372.83 204.712L381.086 170.152L379.141 169.688L370.885 204.248L372.83 204.712ZM380.113 170.92H393.361V168.92H380.113V170.92ZM392.361 169.92V176.544H394.361V169.92H392.361ZM393.361 175.544H390.962V177.544H393.361V175.544ZM390.962 175.544C389.561 175.544 388.347 175.737 387.471 176.263L388.5 177.977C388.904 177.735 389.674 177.544 390.962 177.544V175.544ZM387.431 176.288C386.562 176.867 386.053 177.847 385.767 178.989L387.708 179.475C387.934 178.569 388.257 178.141 388.54 177.952L387.431 176.288ZM385.765 178.998L376.933 215.766L378.878 216.234L387.71 179.466L385.765 178.998ZM377.906 215H367.922V217H377.906V215ZM368.876 215.703L359.756 186.423L357.847 187.017L366.967 216.297L368.876 215.703ZM357.848 186.42L348.632 215.7L350.539 216.3L359.755 187.02L357.848 186.42ZM349.586 215H339.602V217H349.586V215ZM340.574 215.766L331.742 178.998L329.797 179.466L338.629 216.234L340.574 215.766ZM397.363 214.08L396.713 214.841L396.723 214.848L397.363 214.08ZM397.747 194.496L398.338 195.302L398.341 195.3L397.747 194.496ZM410.419 190.656L410.355 189.658L410.349 189.658L410.419 190.656ZM423.859 189.792L423.923 190.79L424.859 190.73V189.792H423.859ZM421.939 177.408L422.663 176.718L421.939 177.408ZM410.131 175.968L410.362 176.941L410.378 176.937L410.394 176.933L410.131 175.968ZM406.387 177.6L405.832 176.768L405.387 177.065V177.6H406.387ZM406.387 181.056V182.056H407.387V181.056H406.387ZM397.459 181.056H396.459V182.056H397.459V181.056ZM397.459 173.472L396.932 172.622L396.459 172.915V173.472H397.459ZM434.707 208.608L433.917 209.222L433.938 209.248L433.959 209.272L434.707 208.608ZM439.219 209.472H440.219V208.472H439.219V209.472ZM439.219 216V217H440.219V216H439.219ZM428.179 216L427.199 216.202L427.364 217H428.179V216ZM426.931 209.952L427.91 209.75L427.473 207.632L426.142 209.337L426.931 209.952ZM419.731 215.712L420.125 216.631L420.135 216.627L419.731 215.712ZM423.859 195.84H424.859V194.761L423.783 194.843L423.859 195.84ZM411.187 196.8L411.248 197.798L411.255 197.798L411.262 197.797L411.187 196.8ZM404.659 198.816L405.326 199.561L405.336 199.552L405.346 199.542L404.659 198.816ZM404.851 208.896L404.222 209.673L404.851 208.896ZM409.075 216.44C404.083 216.44 400.444 215.346 398.003 213.312L396.723 214.848C399.657 217.294 403.826 218.44 409.075 218.44V216.44ZM398.012 213.319C395.653 211.305 394.427 208.44 394.427 204.576H392.427C392.427 208.904 393.825 212.375 396.713 214.841L398.012 213.319ZM394.427 204.576C394.427 200.185 395.787 197.173 398.338 195.302L397.155 193.69C393.946 196.043 392.427 199.751 392.427 204.576H394.427ZM398.341 195.3C401.073 193.281 405.084 192.031 410.488 191.654L410.349 189.658C404.745 190.049 400.308 191.359 397.152 193.692L398.341 195.3ZM410.483 191.654L423.923 190.79L423.795 188.794L410.355 189.658L410.483 191.654ZM424.859 189.792V183.936H422.859V189.792H424.859ZM424.859 183.936C424.859 180.823 424.202 178.335 422.663 176.718L421.215 178.098C422.235 179.169 422.859 181.033 422.859 183.936H424.859ZM422.663 176.718C421.102 175.079 418.585 174.392 415.411 174.392V176.392C418.38 176.392 420.216 177.049 421.215 178.098L422.663 176.718ZM415.411 174.392C413.246 174.392 411.39 174.588 409.868 175.003L410.394 176.933C411.687 176.58 413.352 176.392 415.411 176.392V174.392ZM409.899 174.995C408.44 175.343 407.082 175.934 405.832 176.768L406.941 178.432C407.995 177.73 409.134 177.233 410.362 176.941L409.899 174.995ZM405.387 177.6V181.056H407.387V177.6H405.387ZM406.387 180.056H397.459V182.056H406.387V180.056ZM398.459 181.056V173.472H396.459V181.056H398.459ZM397.985 174.322C403.193 171.098 409.057 169.48 415.603 169.48V167.48C408.709 167.48 402.477 169.19 396.932 172.622L397.985 174.322ZM415.603 169.48C421.621 169.48 425.947 170.815 428.764 173.309C431.557 175.782 433.035 179.548 433.035 184.8H435.035C435.035 179.172 433.44 174.778 430.09 171.811C426.762 168.865 421.873 167.48 415.603 167.48V169.48ZM433.035 184.8V205.824H435.035V184.8H433.035ZM433.035 205.824C433.035 207.177 433.263 208.381 433.917 209.222L435.496 207.994C435.255 207.683 435.035 207.031 435.035 205.824H433.035ZM433.959 209.272C434.729 210.138 435.854 210.472 437.107 210.472V208.472C436.183 208.472 435.708 208.23 435.454 207.944L433.959 209.272ZM437.107 210.472H439.219V208.472H437.107V210.472ZM438.219 209.472V216H440.219V209.472H438.219ZM439.219 215H428.179V217H439.219V215ZM429.158 215.798L427.91 209.75L425.951 210.154L427.199 216.202L429.158 215.798ZM426.142 209.337C424.185 211.845 421.912 213.655 419.327 214.797L420.135 216.627C423.053 215.337 425.581 213.307 427.719 210.567L426.142 209.337ZM419.337 214.793C416.82 215.871 413.418 216.44 409.075 216.44V218.44C413.564 218.44 417.265 217.857 420.125 216.631L419.337 214.793ZM411.379 211.528C415.354 211.528 418.628 210.667 421.095 208.835L419.902 207.229C417.889 208.725 415.083 209.528 411.379 209.528V211.528ZM421.095 208.835C423.645 206.941 424.859 204.08 424.859 200.448H422.859C422.859 203.6 421.833 205.795 419.902 207.229L421.095 208.835ZM424.859 200.448V195.84H422.859V200.448H424.859ZM423.783 194.843L411.111 195.803L411.262 197.797L423.934 196.837L423.783 194.843ZM411.126 195.802C407.935 195.997 405.454 196.686 403.971 198.09L405.346 199.542C406.296 198.642 408.167 197.987 411.248 197.798L411.126 195.802ZM403.992 198.071C402.478 199.425 401.835 201.52 401.835 204.096H403.835C403.835 201.808 404.408 200.383 405.326 199.561L403.992 198.071ZM401.835 204.096C401.835 206.436 402.591 208.353 404.222 209.673L405.48 208.119C404.422 207.263 403.835 205.98 403.835 204.096H401.835ZM404.222 209.673C405.834 210.979 408.294 211.528 411.379 211.528V209.528C408.447 209.528 406.555 208.989 405.48 208.119L404.222 209.673ZM443.23 209.184V208.184H442.23V209.184H443.23ZM448.51 159.84L447.758 160.499L447.78 160.524L447.803 160.547L448.51 159.84ZM443.807 159.072H442.807V160.072H443.807V159.072ZM443.807 152.448V151.448H442.807V152.448H443.807ZM464.447 152.448H465.447V151.448H464.447V152.448ZM464.447 159.072V160.072H465.447V159.072H464.447ZM459.359 159.84L460.066 160.547L460.089 160.524L460.111 160.499L459.359 159.84ZM458.686 190.56H457.686V192.797L459.353 191.305L458.686 190.56ZM474.238 176.64L474.905 177.385L476.855 175.64H474.238V176.64ZM469.535 176.64H468.535V177.64H469.535V176.64ZM469.535 169.92V168.92H468.535V169.92H469.535ZM491.423 169.92H492.423V168.92H491.423V169.92ZM491.423 176.64V177.64H492.423V176.64H491.423ZM484.703 177.024L485.15 177.918L484.703 177.024ZM482.591 178.56L481.94 177.801L481.93 177.809L482.591 178.56ZM473.087 186.912L472.426 186.161L471.805 186.707L472.225 187.42L473.087 186.912ZM484.703 206.592L483.841 207.1L483.848 207.111L483.854 207.122L484.703 206.592ZM486.526 208.704L485.972 209.536L486.024 209.571L486.079 209.598L486.526 208.704ZM493.439 209.184H494.439V208.184H493.439V209.184ZM493.439 216V217H494.439V216H493.439ZM480.574 216L479.719 216.517L480.01 217H480.574V216ZM466.367 192.48L467.222 191.963L466.601 190.935L465.703 191.732L466.367 192.48ZM458.686 199.296L458.023 198.548L457.686 198.846V199.296H458.686ZM459.359 208.512L458.606 209.171L458.65 209.221L458.7 209.265L459.359 208.512ZM465.023 209.184H466.023V208.184H465.023V209.184ZM465.023 216V217H466.023V216H465.023ZM443.23 216H442.23V217H443.23V216ZM443.23 210.184H445.822V208.184H443.23V210.184ZM445.822 210.184C447.134 210.184 448.368 209.972 449.122 209.219L447.707 207.805C447.565 207.948 447.071 208.184 445.822 208.184V210.184ZM449.122 209.219C449.914 208.426 450.182 207.231 450.182 205.92H448.182C448.182 207.041 447.939 207.574 447.707 207.805L449.122 209.219ZM450.182 205.92V162.336H448.182V205.92H450.182ZM450.182 162.336C450.182 161.071 449.964 159.88 449.218 159.133L447.803 160.547C447.953 160.696 448.182 161.169 448.182 162.336H450.182ZM449.263 159.181C448.52 158.332 447.307 158.072 446.014 158.072V160.072C447.154 160.072 447.605 160.324 447.758 160.499L449.263 159.181ZM446.014 158.072H443.807V160.072H446.014V158.072ZM444.807 159.072V152.448H442.807V159.072H444.807ZM443.807 153.448H464.447V151.448H443.807V153.448ZM463.447 152.448V159.072H465.447V152.448H463.447ZM464.447 158.072H461.758V160.072H464.447V158.072ZM461.758 158.072C460.51 158.072 459.341 158.341 458.606 159.181L460.111 160.499C460.272 160.315 460.703 160.072 461.758 160.072V158.072ZM458.651 159.133C457.905 159.88 457.686 161.071 457.686 162.336H459.686C459.686 161.169 459.916 160.696 460.066 160.547L458.651 159.133ZM457.686 162.336V190.56H459.686V162.336H457.686ZM459.353 191.305L474.905 177.385L473.572 175.895L458.02 189.815L459.353 191.305ZM474.238 175.64H469.535V177.64H474.238V175.64ZM470.535 176.64V169.92H468.535V176.64H470.535ZM469.535 170.92H491.423V168.92H469.535V170.92ZM490.423 169.92V176.64H492.423V169.92H490.423ZM491.423 175.64H487.007V177.64H491.423V175.64ZM487.007 175.64C485.931 175.64 484.976 175.769 484.255 176.13L485.15 177.918C485.453 177.767 486.034 177.64 487.007 177.64V175.64ZM484.255 176.13C483.628 176.443 482.847 177.023 481.94 177.801L483.241 179.319C484.126 178.561 484.753 178.117 485.15 177.918L484.255 176.13ZM481.93 177.809L472.426 186.161L473.747 187.663L483.251 179.311L481.93 177.809ZM472.225 187.42L483.841 207.1L485.564 206.084L473.948 186.404L472.225 187.42ZM483.854 207.122C484.522 208.19 485.221 209.035 485.972 209.536L487.081 207.872C486.681 207.605 486.163 207.042 485.551 206.062L483.854 207.122ZM486.079 209.598C486.928 210.023 488.075 210.184 489.406 210.184V208.184C488.178 208.184 487.405 208.025 486.974 207.81L486.079 209.598ZM489.406 210.184H493.439V208.184H489.406V210.184ZM492.439 209.184V216H494.439V209.184H492.439ZM493.439 215H480.574V217H493.439V215ZM481.43 215.483L467.222 191.963L465.511 192.997L479.719 216.517L481.43 215.483ZM465.703 191.732L458.023 198.548L459.35 200.044L467.03 193.228L465.703 191.732ZM457.686 199.296V205.92H459.686V199.296H457.686ZM457.686 205.92C457.686 207.207 457.913 208.379 458.606 209.171L460.111 207.853C459.908 207.621 459.686 207.065 459.686 205.92H457.686ZM458.7 209.265C459.498 209.963 460.712 210.184 462.047 210.184V208.184C460.821 208.184 460.243 207.957 460.017 207.759L458.7 209.265ZM462.047 210.184H465.023V208.184H462.047V210.184ZM464.023 209.184V216H466.023V209.184H464.023ZM465.023 215H443.23V217H465.023V215ZM444.23 216V209.184H442.23V216H444.23ZM498.425 214.08L497.776 214.841L497.785 214.848L498.425 214.08ZM498.809 194.496L499.401 195.302L499.404 195.3L498.809 194.496ZM511.481 190.656L511.417 189.658L511.412 189.658L511.481 190.656ZM524.921 189.792L524.985 190.79L525.921 190.73V189.792H524.921ZM523.001 177.408L523.725 176.718L523.001 177.408ZM511.193 175.968L511.425 176.941L511.441 176.937L511.456 176.933L511.193 175.968ZM507.449 177.6L506.895 176.768L506.449 177.065V177.6H507.449ZM507.449 181.056V182.056H508.449V181.056H507.449ZM498.521 181.056H497.521V182.056H498.521V181.056ZM498.521 173.472L497.995 172.622L497.521 172.915V173.472H498.521ZM535.769 208.608L534.98 209.222L535 209.248L535.022 209.272L535.769 208.608ZM540.281 209.472H541.281V208.472H540.281V209.472ZM540.281 216V217H541.281V216H540.281ZM529.241 216L528.262 216.202L528.427 217H529.241V216ZM527.993 209.952L528.973 209.75L528.536 207.632L527.205 209.337L527.993 209.952ZM520.793 215.712L521.187 216.631L521.197 216.627L520.793 215.712ZM524.921 195.84H525.921V194.761L524.846 194.843L524.921 195.84ZM512.249 196.8L512.31 197.798L512.318 197.798L512.325 197.797L512.249 196.8ZM505.721 198.816L506.388 199.561L506.399 199.552L506.409 199.542L505.721 198.816ZM505.913 208.896L505.284 209.673L505.913 208.896ZM510.137 216.44C505.146 216.44 501.507 215.346 499.065 213.312L497.785 214.848C500.72 217.294 504.889 218.44 510.137 218.44V216.44ZM499.075 213.319C496.715 211.305 495.489 208.44 495.489 204.576H493.489C493.489 208.904 494.887 212.375 497.776 214.841L499.075 213.319ZM495.489 204.576C495.489 200.185 496.85 197.173 499.401 195.302L498.218 193.69C495.009 196.043 493.489 199.751 493.489 204.576H495.489ZM499.404 195.3C502.136 193.281 506.147 192.031 511.551 191.654L511.412 189.658C505.808 190.049 501.371 191.359 498.215 193.692L499.404 195.3ZM511.545 191.654L524.985 190.79L524.857 188.794L511.417 189.658L511.545 191.654ZM525.921 189.792V183.936H523.921V189.792H525.921ZM525.921 183.936C525.921 180.823 525.265 178.335 523.725 176.718L522.277 178.098C523.298 179.169 523.921 181.033 523.921 183.936H525.921ZM523.725 176.718C522.164 175.079 519.648 174.392 516.473 174.392V176.392C519.443 176.392 521.278 177.049 522.277 178.098L523.725 176.718ZM516.473 174.392C514.308 174.392 512.453 174.588 510.93 175.003L511.456 176.933C512.75 176.58 514.414 176.392 516.473 176.392V174.392ZM510.962 174.995C509.502 175.343 508.145 175.934 506.895 176.768L508.004 178.432C509.058 177.73 510.196 177.233 511.425 176.941L510.962 174.995ZM506.449 177.6V181.056H508.449V177.6H506.449ZM507.449 180.056H498.521V182.056H507.449V180.056ZM499.521 181.056V173.472H497.521V181.056H499.521ZM499.048 174.322C504.255 171.098 510.119 169.48 516.665 169.48V167.48C509.771 167.48 503.539 169.19 497.995 172.622L499.048 174.322ZM516.665 169.48C522.683 169.48 527.01 170.815 529.826 173.309C532.62 175.782 534.097 179.548 534.097 184.8H536.097C536.097 179.172 534.503 174.778 531.152 171.811C527.825 168.865 522.935 167.48 516.665 167.48V169.48ZM534.097 184.8V205.824H536.097V184.8H534.097ZM534.097 205.824C534.097 207.177 534.325 208.381 534.98 209.222L536.559 207.994C536.317 207.683 536.097 207.031 536.097 205.824H534.097ZM535.022 209.272C535.792 210.138 536.917 210.472 538.169 210.472V208.472C537.246 208.472 536.771 208.23 536.517 207.944L535.022 209.272ZM538.169 210.472H540.281V208.472H538.169V210.472ZM539.281 209.472V216H541.281V209.472H539.281ZM540.281 215H529.241V217H540.281V215ZM530.221 215.798L528.973 209.75L527.014 210.154L528.262 216.202L530.221 215.798ZM527.205 209.337C525.247 211.845 522.975 213.655 520.389 214.797L521.197 216.627C524.116 215.337 526.643 213.307 528.782 210.567L527.205 209.337ZM520.399 214.793C517.883 215.871 514.48 216.44 510.137 216.44V218.44C514.626 218.44 518.328 217.857 521.187 216.631L520.399 214.793ZM512.441 211.528C516.417 211.528 519.691 210.667 522.158 208.835L520.965 207.229C518.952 208.725 516.146 209.528 512.441 209.528V211.528ZM522.158 208.835C524.707 206.941 525.921 204.08 525.921 200.448H523.921C523.921 203.6 522.895 205.795 520.965 207.229L522.158 208.835ZM525.921 200.448V195.84H523.921V200.448H525.921ZM524.846 194.843L512.174 195.803L512.325 197.797L524.997 196.837L524.846 194.843ZM512.188 195.802C508.997 195.997 506.516 196.686 505.034 198.09L506.409 199.542C507.358 198.642 509.229 197.987 512.31 197.798L512.188 195.802ZM505.054 198.071C503.54 199.425 502.897 201.52 502.897 204.096H504.897C504.897 201.808 505.47 200.383 506.388 199.561L505.054 198.071ZM502.897 204.096C502.897 206.436 503.654 208.353 505.284 209.673L506.542 208.119C505.485 207.263 504.897 205.98 504.897 204.096H502.897ZM505.284 209.673C506.897 210.979 509.357 211.528 512.441 211.528V209.528C509.51 209.528 507.618 208.989 506.542 208.119L505.284 209.673Z" fill="black"/>
</g>
</g>
<g id="pot-frame">
<path id="pot" d="M184.811 165.035L175.972 186.602L138.849 149.478L160.77 140.993M184.811 165.035L192.236 162.56M184.811 165.035L160.77 140.993M227.238 135.336L231.48 139.579L211.141 149.645M227.238 135.336L211.141 149.645M227.238 135.336L213.911 113.348M160.77 140.993L163.598 133.922M211.141 149.645L192.236 162.56M192.236 162.56L163.598 133.922M163.598 133.922L184.575 104.695M188.16 100.501L190.114 98.2132L211.77 111.206M188.16 100.501L180.215 88.3137L154.759 103.87L156.88 107.406L178.447 94.3241L184.575 104.695M188.16 100.501L184.575 104.695M211.77 111.206L213.095 112.002L213.911 113.348M211.77 111.206L212.742 108.113L216.985 112.355L213.911 113.348" stroke="black"/>
</g>
</g>
<defs>
<clipPath id="clip0_9_12">
<rect width="47" height="71" fill="white" transform="translate(218 133)"/>
</clipPath>
</defs>
</svg>
