<svg width="64" height="32" viewBox="0 0 64 32" fill="none" xmlns="http://www.w3.org/2000/svg">
    <rect width="64" height="32" fill="white"/>
    <path class='path' d="M9.76758 22.1055C9.02344 22.1055 8.45801 21.9297 8.07129 21.5781C7.69043 21.2266 7.5 20.7197 7.5 20.0576C7.5 19.7705 7.53516 19.457 7.60547 19.1172L7.75488 18.4141C7.80176 18.2324 7.8252 18.0127 7.8252 17.7549C7.8252 17.4736 7.77539 17.2598 7.67578 17.1133C7.57617 16.9609 7.40918 16.8848 7.1748 16.8848C6.98145 16.8848 6.7793 16.9404 6.56836 17.0518C6.35742 17.1631 6.11719 17.3301 5.84766 17.5527L4.90723 22H2.31445L4.9248 9.75684L7.58789 9.39648L6.24316 15.7334L9.71484 13H11.499L7.89551 15.5049C8.10059 15.4521 8.2998 15.4258 8.49316 15.4258C8.82129 15.4258 9.1084 15.4814 9.35449 15.5928C9.60645 15.6982 9.81738 15.8506 9.9873 16.0498C10.1455 16.2373 10.2656 16.46 10.3477 16.7178C10.4297 16.9697 10.4707 17.2422 10.4707 17.5352C10.4707 17.8105 10.4473 18.0391 10.4004 18.2207L10.1982 19.1172C10.1396 19.3105 10.1104 19.5039 10.1104 19.6973C10.1104 19.9023 10.1631 20.0664 10.2686 20.1895C10.374 20.3066 10.5557 20.3652 10.8135 20.3652C11.1709 20.3652 11.4727 20.2188 11.7188 19.9258C11.9062 19.7031 12.1084 19.3193 12.3252 18.7744H13.0811C12.6416 20.1045 12.0645 21.0361 11.3496 21.5693C10.8809 21.9268 10.3535 22.1055 9.76758 22.1055ZM14.4961 22.1055C13.8105 22.1055 13.2568 21.8916 12.835 21.4639C12.3428 20.96 12.0967 20.21 12.0967 19.2139C12.0967 18.792 12.1406 18.3467 12.2285 17.8779C12.3105 17.4092 12.4336 16.9463 12.5977 16.4893C12.9727 15.458 13.4854 14.626 14.1357 13.9932C14.8857 13.2725 15.75 12.9121 16.7285 12.9121C17.2148 12.9121 17.5781 12.9971 17.8184 13.167C18.0645 13.3311 18.1875 13.5508 18.1875 13.8262V13.958L18.3809 13H20.9736L19.6816 19.1172C19.6289 19.293 19.6025 19.4863 19.6025 19.6973C19.6025 20.2129 19.8486 20.4707 20.3408 20.4707C20.6689 20.4707 20.9678 20.3037 21.2373 19.9697C21.4658 19.6885 21.6533 19.29 21.7998 18.7744H22.5557C22.2334 19.6885 21.8438 20.4121 21.3867 20.9453C21 21.3848 20.5635 21.7012 20.0771 21.8945C19.7197 22.0352 19.3418 22.1055 18.9434 22.1055C18.4336 22.1055 18.0264 21.9678 17.7217 21.6924C17.4229 21.4111 17.2412 20.998 17.1768 20.4531C16.8369 20.9336 16.4795 21.3086 16.1045 21.5781C15.624 21.9297 15.0879 22.1055 14.4961 22.1055ZM15.665 20.3652C15.7998 20.3652 15.9404 20.3301 16.0869 20.2598C16.2393 20.1895 16.3857 20.0898 16.5264 19.9609C16.8428 19.6562 17.0537 19.2607 17.1592 18.7744L18.0205 14.7139C18.0205 14.6553 18.0059 14.5879 17.9766 14.5117C17.9531 14.4297 17.918 14.3535 17.8711 14.2832C17.7305 14.1133 17.5342 14.0283 17.2822 14.0283C17.042 14.0283 16.8076 14.1074 16.5791 14.2656C16.3564 14.4238 16.1455 14.6436 15.9463 14.9248C15.5947 15.4346 15.3047 16.0996 15.0762 16.9199C14.9707 17.2832 14.8916 17.6436 14.8389 18.001C14.7861 18.3525 14.7598 18.6719 14.7598 18.959C14.7598 19.5566 14.8711 19.9609 15.0938 20.1719C15.1699 20.2539 15.2549 20.3066 15.3486 20.3301C15.4424 20.3535 15.5479 20.3652 15.665 20.3652ZM23.5928 22.1055C23.0186 22.1055 22.5645 21.9355 22.2305 21.5957C21.8555 21.2207 21.668 20.6729 21.668 19.9521C21.668 19.6123 21.7148 19.2197 21.8086 18.7744L23.0303 13H25.623L24.3311 19.1172C24.2959 19.2637 24.2783 19.416 24.2783 19.5742C24.2783 19.8027 24.3164 19.9844 24.3926 20.1191C24.4805 20.2832 24.6211 20.3652 24.8145 20.3652C25.1426 20.3652 25.4385 20.2158 25.7021 19.917C25.9131 19.665 26.0977 19.2842 26.2559 18.7744L27.4775 13H30.0703L28.7783 19.1172C28.7139 19.4219 28.6816 19.6387 28.6816 19.7676C28.6816 19.9551 28.7314 20.1016 28.8311 20.207C28.9307 20.3125 29.0859 20.3652 29.2969 20.3652C29.5781 20.3652 29.8535 20.2656 30.123 20.0664C30.3926 19.8672 30.6475 19.5918 30.8877 19.2402C31.1104 18.918 31.3154 18.543 31.5029 18.1152C31.6963 17.6875 31.8604 17.2451 31.9951 16.7881C32.124 16.3428 32.2236 15.9092 32.2939 15.4873C32.3701 15.0596 32.4082 14.6816 32.4082 14.3535C32.3848 14.4062 32.2998 14.4502 32.1533 14.4854C32.0596 14.5146 31.9541 14.5293 31.8369 14.5293C31.6318 14.5293 31.4707 14.4297 31.3535 14.2305C31.2422 14.0605 31.1865 13.8555 31.1865 13.6152C31.1865 13.3223 31.2803 13.0879 31.4678 12.9121C31.6553 12.7305 31.9336 12.6396 32.3027 12.6396C32.7012 12.6396 32.9971 12.8008 33.1904 13.123C33.3545 13.3926 33.4365 13.7529 33.4365 14.2041C33.4365 14.7021 33.3926 15.2412 33.3047 15.8213C33.2227 16.4014 33.0967 16.9727 32.9268 17.5352C32.5166 18.8711 31.9629 19.9229 31.2656 20.6904C30.4219 21.6338 29.4346 22.1055 28.3037 22.1055C27.7119 22.1055 27.2314 21.9795 26.8623 21.7275C26.4932 21.4756 26.2559 21.0977 26.1504 20.5938C25.7695 21.1738 25.3242 21.5869 24.8145 21.833C24.4512 22.0146 24.0439 22.1055 23.5928 22.1055ZM35.8711 22.1055C35.1855 22.1055 34.6318 21.8916 34.21 21.4639C33.7178 20.96 33.4717 20.21 33.4717 19.2139C33.4717 18.792 33.5156 18.3467 33.6035 17.8779C33.6855 17.4092 33.8086 16.9463 33.9727 16.4893C34.3477 15.458 34.8604 14.626 35.5107 13.9932C36.2607 13.2725 37.125 12.9121 38.1035 12.9121C38.5898 12.9121 38.9531 12.9971 39.1934 13.167C39.4395 13.3311 39.5625 13.5508 39.5625 13.8262V13.958L39.7559 13H42.3486L41.0566 19.1172C41.0039 19.293 40.9775 19.4863 40.9775 19.6973C40.9775 20.2129 41.2236 20.4707 41.7158 20.4707C42.0439 20.4707 42.3428 20.3037 42.6123 19.9697C42.8408 19.6885 43.0283 19.29 43.1748 18.7744H43.9307C43.6084 19.6885 43.2188 20.4121 42.7617 20.9453C42.375 21.3848 41.9385 21.7012 41.4521 21.8945C41.0947 22.0352 40.7168 22.1055 40.3184 22.1055C39.8086 22.1055 39.4014 21.9678 39.0967 21.6924C38.7979 21.4111 38.6162 20.998 38.5518 20.4531C38.2119 20.9336 37.8545 21.3086 37.4795 21.5781C36.999 21.9297 36.4629 22.1055 35.8711 22.1055ZM37.04 20.3652C37.1748 20.3652 37.3154 20.3301 37.4619 20.2598C37.6143 20.1895 37.7607 20.0898 37.9014 19.9609C38.2178 19.6562 38.4287 19.2607 38.5342 18.7744L39.3955 14.7139C39.3955 14.6553 39.3809 14.5879 39.3516 14.5117C39.3281 14.4297 39.293 14.3535 39.2461 14.2832C39.1055 14.1133 38.9092 14.0283 38.6572 14.0283C38.417 14.0283 38.1826 14.1074 37.9541 14.2656C37.7314 14.4238 37.5205 14.6436 37.3213 14.9248C36.9697 15.4346 36.6797 16.0996 36.4512 16.9199C36.3457 17.2832 36.2666 17.6436 36.2139 18.001C36.1611 18.3525 36.1348 18.6719 36.1348 18.959C36.1348 19.5566 36.2461 19.9609 36.4688 20.1719C36.5449 20.2539 36.6299 20.3066 36.7236 20.3301C36.8174 20.3535 36.9229 20.3652 37.04 20.3652ZM49.9512 22.1055C49.207 22.1055 48.6416 21.9297 48.2549 21.5781C47.874 21.2266 47.6836 20.7197 47.6836 20.0576C47.6836 19.7705 47.7188 19.457 47.7891 19.1172L47.9385 18.4141C47.9854 18.2324 48.0088 18.0127 48.0088 17.7549C48.0088 17.4736 47.959 17.2598 47.8594 17.1133C47.7598 16.9609 47.5928 16.8848 47.3584 16.8848C47.165 16.8848 46.9629 16.9404 46.752 17.0518C46.541 17.1631 46.3008 17.3301 46.0312 17.5527L45.0908 22H42.498L45.1084 9.75684L47.7715 9.39648L46.4268 15.7334L49.8984 13H51.6826L48.0791 15.5049C48.2842 15.4521 48.4834 15.4258 48.6768 15.4258C49.0049 15.4258 49.292 15.4814 49.5381 15.5928C49.79 15.6982 50.001 15.8506 50.1709 16.0498C50.3291 16.2373 50.4492 16.46 50.5312 16.7178C50.6133 16.9697 50.6543 17.2422 50.6543 17.5352C50.6543 17.8105 50.6309 18.0391 50.584 18.2207L50.3818 19.1172C50.3232 19.3105 50.2939 19.5039 50.2939 19.6973C50.2939 19.9023 50.3467 20.0664 50.4521 20.1895C50.5576 20.3066 50.7393 20.3652 50.9971 20.3652C51.3545 20.3652 51.6562 20.2188 51.9023 19.9258C52.0898 19.7031 52.292 19.3193 52.5088 18.7744H53.2646C52.8252 20.1045 52.248 21.0361 51.5332 21.5693C51.0645 21.9268 50.5371 22.1055 49.9512 22.1055ZM54.6797 22.1055C53.9941 22.1055 53.4404 21.8916 53.0186 21.4639C52.5264 20.96 52.2803 20.21 52.2803 19.2139C52.2803 18.792 52.3242 18.3467 52.4121 17.8779C52.4941 17.4092 52.6172 16.9463 52.7812 16.4893C53.1562 15.458 53.6689 14.626 54.3193 13.9932C55.0693 13.2725 55.9336 12.9121 56.9121 12.9121C57.3984 12.9121 57.7617 12.9971 58.002 13.167C58.248 13.3311 58.3711 13.5508 58.3711 13.8262V13.958L58.5645 13H61.1572L59.8652 19.1172C59.8125 19.293 59.7861 19.4863 59.7861 19.6973C59.7861 20.2129 60.0322 20.4707 60.5244 20.4707C60.8525 20.4707 61.1514 20.3037 61.4209 19.9697C61.6494 19.6885 61.8369 19.29 61.9834 18.7744H62.7393C62.417 19.6885 62.0273 20.4121 61.5703 20.9453C61.1836 21.3848 60.7471 21.7012 60.2607 21.8945C59.9033 22.0352 59.5254 22.1055 59.127 22.1055C58.6172 22.1055 58.21 21.9678 57.9053 21.6924C57.6064 21.4111 57.4248 20.998 57.3604 20.4531C57.0205 20.9336 56.6631 21.3086 56.2881 21.5781C55.8076 21.9297 55.2715 22.1055 54.6797 22.1055ZM55.8486 20.3652C55.9834 20.3652 56.124 20.3301 56.2705 20.2598C56.4229 20.1895 56.5693 20.0898 56.71 19.9609C57.0264 19.6562 57.2373 19.2607 57.3428 18.7744L58.2041 14.7139C58.2041 14.6553 58.1895 14.5879 58.1602 14.5117C58.1367 14.4297 58.1016 14.3535 58.0547 14.2832C57.9141 14.1133 57.7178 14.0283 57.4658 14.0283C57.2256 14.0283 56.9912 14.1074 56.7627 14.2656C56.54 14.4238 56.3291 14.6436 56.1299 14.9248C55.7783 15.4346 55.4883 16.0996 55.2598 16.9199C55.1543 17.2832 55.0752 17.6436 55.0225 18.001C54.9697 18.3525 54.9434 18.6719 54.9434 18.959C54.9434 19.5566 55.0547 19.9609 55.2773 20.1719C55.3535 20.2539 55.4385 20.3066 55.5322 20.3301C55.626 20.3535 55.7314 20.3652 55.8486 20.3652Z" fill="black"/>
</svg>
