<svg id="visual" viewBox="0 0 900 450" width="900" height="450" xmlns="http://www.w3.org/2000/svg" xmlns:xlink="http://www.w3.org/1999/xlink" version="1.1"><rect x="0" y="0" width="900" height="450" fill="#ffe8d6"></rect><path d="M0 342L15 334.2C30 326.3 60 310.7 90 304.2C120 297.7 150 300.3 180 308.3C210 316.3 240 329.7 270 338.2C300 346.7 330 350.3 360 350.7C390 351 420 348 450 342.5C480 337 510 329 540 326.8C570 324.7 600 328.3 630 331.5C660 334.7 690 337.3 720 339.2C750 341 780 342 810 334.3C840 326.7 870 310.3 885 302.2L900 294L900 451L885 451C870 451 840 451 810 451C780 451 750 451 720 451C690 451 660 451 630 451C600 451 570 451 540 451C510 451 480 451 450 451C420 451 390 451 360 451C330 451 300 451 270 451C240 451 210 451 180 451C150 451 120 451 90 451C60 451 30 451 15 451L0 451Z" fill="#783b36"></path><path d="M0 326L15 332.8C30 339.7 60 353.3 90 359.2C120 365 150 363 180 363.3C210 363.7 240 366.3 270 362.2C300 358 330 347 360 342.2C390 337.3 420 338.7 450 346.3C480 354 510 368 540 372.8C570 377.7 600 373.3 630 373C660 372.7 690 376.3 720 369.2C750 362 780 344 810 340.5C840 337 870 348 885 353.5L900 359L900 451L885 451C870 451 840 451 810 451C780 451 750 451 720 451C690 451 660 451 630 451C600 451 570 451 540 451C510 451 480 451 450 451C420 451 390 451 360 451C330 451 300 451 270 451C240 451 210 451 180 451C150 451 120 451 90 451C60 451 30 451 15 451L0 451Z" fill="#562827"></path><path d="M0 359L15 367.8C30 376.7 60 394.3 90 396.3C120 398.3 150 384.7 180 384.7C210 384.7 240 398.3 270 400C300 401.7 330 391.3 360 384.7C390 378 420 375 450 377.8C480 380.7 510 389.3 540 386.7C570 384 600 370 630 362.7C660 355.3 690 354.7 720 355.5C750 356.3 780 358.7 810 363.2C840 367.7 870 374.3 885 377.7L900 381L900 451L885 451C870 451 840 451 810 451C780 451 750 451 720 451C690 451 660 451 630 451C600 451 570 451 540 451C510 451 480 451 450 451C420 451 390 451 360 451C330 451 300 451 270 451C240 451 210 451 180 451C150 451 120 451 90 451C60 451 30 451 15 451L0 451Z" fill="#361717"></path><path d="M0 413L15 416C30 419 60 425 90 423.3C120 421.7 150 412.3 180 410.7C210 409 240 415 270 414.3C300 413.7 330 406.3 360 409.2C390 412 420 425 450 426C480 427 510 416 540 408.2C570 400.3 600 395.7 630 396.2C660 396.7 690 402.3 720 403.2C750 404 780 400 810 399.5C840 399 870 402 885 403.5L900 405L900 451L885 451C870 451 840 451 810 451C780 451 750 451 720 451C690 451 660 451 630 451C600 451 570 451 540 451C510 451 480 451 450 451C420 451 390 451 360 451C330 451 300 451 270 451C240 451 210 451 180 451C150 451 120 451 90 451C60 451 30 451 15 451L0 451Z" fill="#1b0000"></path></svg>